<?xml version="1.0" encoding="utf-8"?>
<!-- Generator: Adobe Illustrator 25.3.1, SVG Export Plug-In . SVG Version: 6.00 Build 0)  -->
<svg version="1.1" id="Layer_1" xmlns="http://www.w3.org/2000/svg" xmlns:xlink="http://www.w3.org/1999/xlink" x="0px" y="0px"
	 viewBox="0 0 2037.7 2048" style="enable-background:new 0 0 2037.7 2048;" xml:space="preserve">
<style type="text/css">
	.st0{fill:#7FD0DC;}
	.st1{fill:#00FF36;}
	.st2{fill:#0013FF;}
	.st3{fill:#0C00FF;}
	.st4{fill:#8F00FF;}
	.st5{fill:#8F82DB;}
	.st6{fill:#3208FF;}
	.st7{fill:#0099A5;}
	.st8{fill:#F900D6;}
</style>
<g>
	<path class="st0" d="M651,750c-6.3-7-11.6-12.9-17-18.7c-8.2-8.7-16.6-17.2-24.9-25.9c-7.5-7.9-8.4-15.4-2.6-20.9
		c6.9-6.7,16.5-6,23.8,1.9c11.1,12,22,24,32.9,36.2c8,8.9,8.2,9,17,0.2c11-11.1,21.8-22.4,33-33.3c7.7-7.6,18.8-6.2,23.5,2.6
		c3,5.7,2.2,10.3-3.6,16.1c-7.2,7.3-14.8,14.3-22.1,21.6c-5.7,5.6-11.3,11.3-16.7,17.2c-4.1,4.5-4,6.3,0.2,11.1
		c7.5,8.5,15.1,16.8,22.7,25.2c6.8,7.5,7.4,14.6,1.7,20.2c-5.6,5.4-14,5.5-20.5-1c-7.8-7.7-14.8-16.2-22.2-24.3
		c-5.8-6.4-7.1-6.6-13.6-0.6c-5.4,5-10.5,10.2-16,15.1c-4.1,3.9-8.6,7.3-13.4,10.4c-6.5,3.9-14.1,1.8-18.4-4.2
		c-3.9-5.5-3.1-11.1,2.9-16.8c8-7.6,16.2-14.9,24.2-22.4C644.8,756.9,647.3,753.9,651,750z"/>
	<path class="st0" d="M857.7,754.1c-0.8-1.4-1.2-2.9-2.2-3.6c-11-8-22.2-15.9-33.2-23.8c-2.2-1.4-4.4-3.1-6.4-4.8
		c-4.8-4.5-5.6-11.9-1.9-17.3c3.6-5.6,11-7.3,16.8-3.9c6.6,3.9,12.9,8.2,19.1,12.7c6.5,4.6,12.7,9.8,19.3,14.2
		c7,4.6,9.8,4.2,15.8-1.6c7.7-7.4,15-15.1,22.7-22.4c7.5-7.1,12.8-7.8,19.5-3.2c7.5,5.2,8.5,13.9,2.2,20.5
		c-3.7,3.9-7.7,7.3-11.5,11.1s-7.8,7.3-11.2,11.4c-3.7,4.3-3.7,6.6,0.9,10c6.4,4.7,13.3,8.8,20.1,13c10.8,6.6,21.7,12.9,32.5,19.5
		c7.7,4.8,10.3,12.9,6.4,19.5s-12.5,8.9-20.2,4.7c-8.8-4.8-17.2-10.1-25.6-15.5c-11.2-7.2-22.2-14.7-33.2-22.1
		c-4-2.7-7.3-2-10.5,1.6c-6,6.7-11.8,13.5-18.3,19.6c-3.5,3.4-7.9,5.8-12.6,7.2c-5.3,1.3-10.6-0.9-13.7-6.1s-2.3-10.7,2.2-15.6
		c6.5-7.1,13.3-14,19.9-21C855.7,756.8,856.6,755.5,857.7,754.1z"/>
	<path class="st0" d="M788.8,851c-7,3.2-11.2,9.2-15.7,14.9c-1.2,1.6-2,3.5-3.1,5.1c-5.4,7.8-11,8-16.4,0.2
		c-3.6-5.2-6.1-11.1-9.2-16.5c-1.4-2.2-3-4.4-4.6-6.5c-8.4,4.2-13.6,10.6-18.9,16.9c-3.4,4.1-6.5,8.5-9.6,12.8
		c-2.2,3.1-5.1,4.5-8.6,2.6c-3.8-2.1-4.8-5.7-2.6-9.4c2.8-4.9,6-9.5,9.8-13.8c6.5-7.1,13.7-13.6,20.6-20.3c1.7-1.6,3.5-3,5.5-4.2
		c6.2-3.9,10.2-3,13.9,3.5c2.6,4.6,4.7,9.6,7.2,14.3c1.3,2.2,2.7,4.2,4.3,6.2c2.5-2.1,4.6-3.6,6.5-5.3c5.7-5.1,11.1-10.5,17.1-15.2
		c7-5.5,11.7-4.1,16,3.8c8.6,15.9,8.7,16,24.4,8c4.1-2.1,8.1-4.5,12-7.1c5.2-3.4,10.3-3.3,14.6,0.9c5.2,5.1,10,10.6,14.7,16.2
		c2.2,2.5,2.2,5.6-0.6,8c-2.3,2.2-5.9,2.2-8.2-0.1c-3.1-2.5-6-5.3-8.5-8.3c-3.4-4.3-7-4.5-11.3-2c-6.6,3.8-13.4,7.3-19.6,11.7
		c-8.2,5.8-12.3,5.4-18-3C797.1,859.6,795.2,853.6,788.8,851z"/>
</g>
<path class="st0" d="M104.5,1126.7c-2.8-24.2,15.8-48,37.8-57.2s55.2-3.5,71.7,14.8c17.5,19.4,22,41.2,12.4,65.5
	c-2,4.9-4.5,9.6-7.5,14c-3,4.3-7.1,6.4-13,4c-6.8-2.6-13.7-4.9-20.8-6.8c-20-5.8-40.1-4.7-60.2-0.6c-9.9,2-11.2,1.7-15.7-7.3
	C105.2,1145,103.5,1135.8,104.5,1126.7z"/>
<path class="st0" d="M934.7,1291.3c-26.8-1.3-49.1,9.4-70.4,23c-8.8,5.6-9,5.7-16.8-1.6c-24.7-23.4-23.2-76.2,14.9-95.5
	c13.6-6.9,27.5-10.3,42.3-7.6c36.1,6.6,59.5,35.9,52.8,73.8c-1.1,6.2-2.7,7.6-9.4,7.9C943.4,1291.5,938.7,1291.3,934.7,1291.3z"/>
<g>
	<path class="st0" d="M379,857.7c-37.1,0.5-68.4-23.3-81-56.3c-17.8-46.3,9.8-97.5,57.3-111.3c37.1-10.8,81.5,7,100,34.7
		c24.6,36.4,17,85.6-17.4,112.9C421,850.9,402.1,857.6,379,857.7z"/>
	<path class="st0" d="M161.3,857.5c-54.4,1.7-98-39.7-94.7-89.9c2.3-34.8,20.3-59.4,52-73.2c34.2-14.8,66.9-9.9,95.4,13.5
		c20.9,17.2,30.4,40.9,29,68.2c-1.4,26.5-13.2,47.3-34.1,63.8C193.3,852.5,175.5,856.7,161.3,857.5z"/>
</g>
<g>
	<path class="st0" d="M1317.5,1256.3c-0.5-9.5,3.1-19.4,8.6-28.7c3.9-6.6,6.1-7.4,12.9-4.8c16.4,6.4,32.7,13,49.1,19.2
		c15.2,5.8,30.5,11.2,45.7,16.8c11.6,4.3,12.9,6,8.9,17.5c-7.2,21.3-21.8,35.5-43.6,41.2c-24.3,6.3-45.9,0.7-64.5-16.5
		C1325.1,1292.3,1317.4,1273.5,1317.5,1256.3z"/>
	<path class="st0" d="M1175.4,1320.1c-22.5,0.9-48-18.6-55.9-42.4c-3.9-11.9-3.1-14.5,8.4-18.8c19.9-7.5,39.9-14.8,59.8-22.3
		c11.8-4.4,23.6-9.1,35.3-13.6c6.6-2.5,8.7-2.1,12.4,4c11.1,18,12.8,37,3.6,56.2C1227.3,1307.8,1207.2,1319.7,1175.4,1320.1z"/>
</g>
<g>
	<path class="st0" d="M377.4,176.6c34.1-1.3,64.2,27.4,64.1,61.3c-0.1,36-30.8,62.3-64.6,62.4c-34.7,0.2-63.8-28.9-63.8-61.9
		C313.2,202.2,345.1,174.7,377.4,176.6z M375.7,190c-29.8-2.8-49.9,23.5-51.8,45.9c-3,34.6,38.6,64.6,71.3,48.5
		c2.1-1,4.1-2.1,6.2-3.1c16.1-7.6,27-28.1,25.8-46C425.5,211.4,402,187,375.7,190z"/>
	<path class="st0" d="M160.7,176.6c36.5-0.5,62.8,25.7,63,61.7c0.2,34.3-25.6,61.2-62.2,61.9c-35.7,0.7-65.3-30.2-65.4-62.7
		C96,206.2,128.2,174,160.7,176.6z M162.3,190c-1.5,0-3.1,0.1-4.8,0c-23.8-1.4-53.7,25.8-46,59.5c6.5,28.2,42.2,48.6,71,34.8
		c16.2-7.8,26.9-19.5,30.3-36.9C218.7,217.4,192.5,186.7,162.3,190z"/>
	<path class="st0" d="M268.1,348.2c-10.4,0.1-20.5-3-29-8.9c-1.9-1.3-3.7-2.8-5.2-4.5c-2.5-2.8-3.2-6-0.5-9c2.2-2.7,6-3.4,9-1.6
		c1.2,0.6,2.2,1.5,3.3,2.2c15,8.5,30,8.6,45-0.2c1.7-1,3.5-2.6,5.2-2.5c2.4,0.1,5.6,0.8,6.8,2.5s1.3,5.2,0.4,7.1
		c-1.2,2.5-3.7,4.7-6.1,6.3C288.6,345.3,278.5,348.4,268.1,348.2z"/>
</g>
<g>
	<path class="st0" d="M1239.8,219.9c-1.1,3.6-1.6,6.5-2.8,9.1c-12.4,26.7-42,43.5-73.8,35.4c-19.6-5-35.2-17.1-43.6-36.6
		c-3.2-7.6-1.9-10.4,5.8-10.3c36.3,0.2,72.5,0.6,108.8,1C1235.6,218.5,1236.8,219.1,1239.8,219.9z"/>
	<path class="st0" d="M1456.3,218.6c-1.9,12.7-8.1,21.6-16.2,29.1c-16.9,15.8-37.2,22.6-59.7,17.1c-20.6-5-36.1-18-44.8-37.9
		c-2.3-5.2-0.1-8.2,5.8-8.5c8.3-0.4,16.6-0.3,24.9-0.4c25.9-0.2,51.9-0.5,77.8-0.6C1448,217.5,1451.7,218.2,1456.3,218.6z"/>
	<path class="st0" d="M1287.7,290c8.6,0,17.3,0,25.9,0c2,0,4,0.2,6,0.5c3.4,0.6,5.8,2.9,5.2,6.2c-0.8,2.7-2.5,5.1-4.8,6.7
		c-1.7,1.2-4.5,1-6.8,1c-17.6,0.1-35.3,0.1-52.9,0c-2,0.1-4-0.1-5.9-0.5c-3.5-0.9-6.8-3.2-5.8-6.8c0.7-2.6,3.8-4.8,6.3-6.6
		c1.1-0.8,3.2-0.4,4.9-0.4C1269.1,289.9,1278.4,290,1287.7,290z"/>
</g>
<g>
	<path class="st0" d="M159,1698.9c34.4-1.9,64.4,27.6,64.1,61.2c-0.3,35.4-29.4,61.6-64.2,61.8c-33.9,0.2-64.3-26-64.5-62.3
		C94.2,1727.1,125.5,1696.4,159,1698.9z"/>
	<path class="st0" d="M435.1,1792.2c-4.1,5.2-6.5,9.8-10.2,12.7c-28,22.3-59.5,23.9-88.4,0.1c-10.7-8.8-16.9-21.5-18.4-35.6
		c-0.6-7.3-0.5-14.6,0.3-21.9c0.7-7.2,4.1-8.5,9.9-4.3c28,20.3,58.9,34.5,92.2,43.8C424.8,1788.1,428.7,1789.8,435.1,1792.2z"/>
	<path class="st0" d="M269.4,1871.5c-12.5,0.2-23.8-4.9-34.1-12.7c-3-2.2-5.7-5-3-9.2c2.4-3.8,6.8-4.4,11.3-1.8
		c3.7,2.2,7.2,4.6,11.1,6.5c12,5.9,23.7,4.8,35-2c3.1-1.9,6-4.4,9.3-5.5c2-0.7,5.6,0,6.9,1.5s1.4,5,0.8,7.2c-0.5,2-2.5,3.8-4.4,5.1
		C292.8,1867.4,282.2,1871.6,269.4,1871.5z"/>
</g>
<g>
	<path class="st0" d="M872.4,295.7c-29.4,0.5-49.3-14.6-60.8-40.1c-1.9-4.3-2.2-9.8-1.9-14.6c0.1-2.3,2.6-5.5,4.9-6.6
		c21.3-10.1,42.8-19.7,64.2-29.6c9.6-4.4,19.2-9.1,28.6-14c5-2.6,8.3-1.7,12.2,2.4c12.8,13.8,17.3,30.1,16,48.6
		C933.3,272.8,904.9,297,872.4,295.7z"/>
	<path class="st0" d="M678.1,295.6c-30.2,0.2-50.5-11.8-62.2-37.1c-9.5-20.6-4-48.8,11.8-65.1c4.1-4.2,7.8-4.9,13.2-2.2
		c13.1,6.5,26.5,12.3,39.7,18.5c16.3,7.6,32.5,15.2,48.8,22.9c9,4.2,9.6,5.5,7.9,15.4c-3.7,21.8-25.1,42.9-46.9,46.3
		C685.6,295.1,680.6,295.4,678.1,295.6z"/>
	<path class="st0" d="M774.5,311.1c7,1.8,14.1,3.2,20.8,5.5c3.3,1.1,6.3,3.7,9,6.1c4.8,4.5,5.6,9,2.6,12.1
		c-2.7,2.8-7.2,2.9-11.8-0.6c-10.1-8-21.3-8.5-33-5.2c-4,1.1-7.6,3.8-11.3,6s-7.7,2.9-10.8-0.8c-2.9-3.5-0.9-6.9,1.6-9.8
		c5.9-6.9,13.7-10.3,22.5-11.5c3.2-0.5,6.6-0.1,9.9-0.1C774.3,312.2,774.4,311.7,774.5,311.1z"/>
</g>
<g>
	<path class="st0" d="M1678.8,175.1c22.8,0.6,41.2,9.5,53.4,27.7c16.6,24.7,15.5,51.6-4.3,75.7c-17,20.7-50.6,25.4-74,16.2
		c-23.9-9.3-41.1-38.6-39.5-60.4c1.6-22.3,18-45.4,38.5-52.9C1661.2,178.3,1670.1,177.1,1678.8,175.1z M1674.8,235.2L1674.8,235.2
		c-0.1,6-0.1,12-0.1,17.9c0,5.7,0,11.3,0.2,16.9c0.1,3.8,2.4,6.2,6.2,6.7c3.9,0.5,6.3-1.8,7.5-5.2c0.6-2.2,0.9-4.6,0.8-6.9
		c0.1-19.9,0.1-39.9,0.1-59.8c0-2.3,0.3-5.1-0.9-6.8c-1.5-2.1-4.4-4.6-6.7-4.6s-5,2.7-6.5,4.9c-1.1,1.7-0.7,4.5-0.7,6.8
		C1674.7,215.2,1674.8,225.2,1674.8,235.2L1674.8,235.2z"/>
	<path class="st0" d="M1907.8,176.5c30-1.4,55.9,21.3,61.7,46.8c4.6,20.2,0.1,38.1-13.4,53.9c-21.8,25.6-57.2,29.2-84.3,12.9
		c-19.6-11.7-29.5-30.7-28.9-54.6C1843.7,203.6,1871.8,174.6,1907.8,176.5z M1896.3,234h0.4c0,10,0,19.9,0,29.9
		c-0.1,2.3,0.1,4.6,0.6,6.9c0.8,3.6,3.2,6,6.9,6.1s6.1-2.5,6.8-6.1c0.4-2.3,0.5-4.6,0.4-6.9c-0.1-19.6-0.2-39.1-0.4-58.7
		c0.1-2,0-4-0.4-5.9c-0.9-3.5-3.2-6-7-6s-6.2,2.3-6.9,6c-0.4,2.3-0.5,4.6-0.4,6.9C1896.2,215.4,1896.3,224.7,1896.3,234z"/>
	<path class="st0" d="M1792.6,344c-9.5,0.9-17.2-2.3-24.4-6.4c-3.1-1.9-5.8-4.4-8.1-7.3c-2.3-2.8-2.7-6.4-0.1-9.1s5.9-2.2,9,0
		c2.2,1.5,4.4,2.9,6.7,4.2c13.8,7.5,26.8,5.1,39.3-3.4c0.7-0.7,1.5-1.3,2.4-1.8c3.3-1.6,6.6-1.6,9.1,1.2c2.7,3,1.8,6.2-0.7,8.9
		c-7.2,8-16.6,12-27,13.5C1796.7,344.2,1794.7,344.2,1792.6,344z"/>
</g>
<g>
	<path class="st0" d="M1951.1,1287.5c-23-0.1-44.9,4.6-65.2,15.8c-4.6,2.7-8.9,5.7-13.1,9c-3.5,2.7-6.5,2.4-9.8-0.5
		c-25.3-22.6-24.1-57.3-11-78.3c18.2-29.4,59.7-35.4,85.7-21.5c23.6,12.7,35.9,39.3,33,60.1c-0.4,3-1,5.9-1.9,8.8
		c-2,6.9-2.5,7.1-9.8,6.9c-1.3,0-2.7-0.2-4-0.2S1952.4,1287.5,1951.1,1287.5z"/>
	<path class="st0" d="M1684.5,1204.6c31.1-0.2,55.2,15.5,63.9,38c7.1,18.4,6.1,36.7-3.3,54c-2.9,5.4-7.9,9.7-12.1,14.4
		c-3.3,3.7-6.7,3.5-10.5,0.5c-13-10.3-28-16.3-44-20.2c-13.3-3.2-26.9-4.4-40.5-3.7c-9.6,0.4-10.7-0.5-12-10.2
		c-2.3-17-0.4-32.8,10.6-47.2C1650.2,1212.6,1668,1205.4,1684.5,1204.6z"/>
	<path class="st0" d="M1799.1,1367.4c-12-0.4-21.4-5.2-30.1-11.4c-3.5-2.5-5-6.3-2.5-10.5c2.3-3.9,6.6-4.6,11.3-2.1
		c1.4,0.8,2.7,1.9,4.1,2.8c10.5,6.9,21.1,7.1,31.8,0.4c2-1.2,3.8-2.6,5.9-3.7c3.3-1.8,6.4-1.3,9,1.5c2.9,3.2,2.5,6.6,0.1,10
		c-0.5,0.8-1.2,1.6-2,2.2C1817.8,1362.1,1808.8,1366.9,1799.1,1367.4z"/>
</g>
<path class="st0" d="M169.3,1065.2c28.9,0.3,58.2,20.4,65,51.7c6.1,28.2-7.9,56.9-35.4,70.3c-32.4,15.8-69.7,3.2-85.8-22.4
	c-3.5-5.5-6.7-11.8-7.9-18.1c-6.4-33.1,4.9-62.9,39.1-75.8C152.2,1068,160.9,1067,169.3,1065.2z"/>
<path class="st0" d="M585,1063.9c38.4-0.6,67.9,28.7,67.4,63.9c-0.5,37-28.3,63.6-66.7,63.8c-35.8,0.4-65.1-28.3-65.5-64
	c0-0.1,0-0.2,0-0.3C520,1092.1,551.7,1062.6,585,1063.9z"/>
<path class="st1" d="M287.4,1246c-15.2,0.2-24.8-4.4-34.3-9.2c-1.7-0.9-3.6-2.3-4.4-3.9c-1-2.1-2-5.8-1-7c2-2,4.7-3,7.5-2.8
	c2.7,0.3,5.3,2.5,7.9,4.1c13.1,8.2,26.2,8.2,39.4,0c2.5-1.6,5.1-3,7.9-4.2c3.1-1.2,6.4-0.3,7.5,2.9c0.7,2-0.2,5-1.2,7.1
	c-0.8,1.7-2.7,3-4.4,3.9C303.2,1241.6,293.7,1245.5,287.4,1246z"/>
<g>
	<path class="st0" d="M1340.9,740.1c8.9-3.8,11.5-3.3,14.8,4.4c5.2,12.4,14.2,20.6,25.8,26.7c18.8,9.8,36.1,6.3,52.4-5.4
		c7.7-5.5,14.1-12.2,16.8-21.7c0.8-2.8,2.1-6.1,4.2-7.8s6.3-2.9,8.8-2.1c3.4,1,2.4,4.7,1.4,7.7c-11.2,33.9-42.2,50.9-76.1,44.2
		C1364.2,781.3,1348.5,765.1,1340.9,740.1z"/>
	<path class="st0" d="M1239.9,739.3c-5.1,20.3-16.6,34.4-34.9,42.5c-19.3,8.6-39,8.1-57.7-1.7c-16.2-8.5-27-22.2-31.4-40.3
		c-0.4-1.6,1.3-5.3,2.5-5.5c2.2-0.5,5.7,0.2,7,1.7c2.7,3.3,4.5,7.3,6.3,11.2c6.6,14.2,18.4,22.4,32.6,27.5c23.4,8.3,51.2-8.8,59-26
		c0.8-1.8,1.5-3.7,2.5-5.5C1229.1,737.3,1230.8,736.7,1239.9,739.3z"/>
	<path class="st0" d="M1290.3,820.9c-7.3,0-14.6,0.1-21.9,0c-2.6,0-5.6,0.1-7.7-1.1s-4.2-3.9-4.2-5.9c0-1.9,2.3-4.4,4.3-5.7
		c1.8-1.2,4.4-1.3,6.7-1.4c15.2-0.1,30.5-0.1,45.7,0c1.7,0,3.3,0.2,4.9,0.6c3.7,0.9,7.3,2.2,6.7,7c-0.5,4.4-3.7,6.1-7.7,6.4
		c-3.3,0.2-6.6,0.2-9.9,0.2C1301.5,820.9,1295.9,820.9,1290.3,820.9L1290.3,820.9z"/>
</g>
<path class="st0" d="M586.2,1199c31.8,0,57.5,20.3,63.2,51.3c4,21.8-2.9,40.3-19.6,55.5c-20.6,18.7-44.5,22.2-68.6,12
	c-44.2-18.7-50.9-70-20.2-101.2C551.6,1205.5,569.3,1199,586.2,1199z M584.4,1212c-10.2-0.8-20.4,2-28.8,8
	c-15.7,11.3-24.4,26.7-22.4,46.2c1.9,18.1,12.2,31.1,28.7,39.2c15.8,7.8,31.2,6.8,46.9-0.7c14-6.7,22.1-17.9,26-32.2
	C643.5,1240,613.9,1209.6,584.4,1212L584.4,1212z"/>
<path class="st2" d="M168.5,1065.2c14.1,0.9,27.8,5.6,39.5,13.6c19.9,13.2,29.7,48.4,19.3,72.8c-15.9,37.4-55.8,46.5-85.7,32.7
	c-27.5-12.7-42.6-38.6-35.8-69.5c4.6-20.9,18.1-36.1,38.6-43.7C152.1,1068.1,160.4,1067.1,168.5,1065.2z M168.3,1079.5
	c-1.6-0.1-3.1-0.1-4.7,0c-24.3,1.8-45.1,24.5-45.3,48.9c-0.2,17.3,8.4,30.1,21.3,39.7c10.5,7.8,23.2,12.2,36.7,9.8
	c15.8-2.8,29.2-9.6,38.3-24.2c8.4-13.4,9.2-27.2,4.3-41.1C212,1093.2,193.6,1078,168.3,1079.5z"/>
<path class="st0" d="M1753.9,793.3c-5.9-6.9-10.2-12.8-8.6-21c1.4-7.1,4.5-8.2,12.7-3.9l-7.8,7C1750,781.2,1758,784.7,1753.9,793.3z
	"/>
<path class="st0" d="M1938.3,771.1l-8.2,4.3c-0.3,6.2,8,9.6,4.7,17.1c-6.6-3-9.3-8.7-10.1-14.7
	C1923.4,769.1,1927.8,766.7,1938.3,771.1z"/>
<path class="st0" d="M1819.7,766.1l-10.6,8.2c1.3,2.6,2.8,5.1,3.9,7.7s2,5.2,3.2,8.5c-9.7-2.3-12.1-10.2-8.4-25.8l12.1,1.4
	L1819.7,766.1z"/>
<path class="st0" d="M1730.8,738.1c9.2-2.9,18.3-4.1,29.2-1.1C1751.7,742,1737.4,742.7,1730.8,738.1z"/>
<path class="st0" d="M1872.9,800.7c-9,2-18.4,1.9-27.4-0.3C1853.2,795.6,1867.3,795.7,1872.9,800.7z"/>
<path class="st0" d="M1938.6,740.2c-8.9,2.3-17.8,2.5-26.7-0.8C1920.9,736,1929.8,736.8,1938.6,740.2z"/>
<path class="st0" d="M1692.5,801.2c-8.3,3.3-16.9,4-26.6,3.1C1670.3,798.6,1681.7,797.1,1692.5,801.2z"/>
<path class="st0" d="M1850.4,736.8c9-1.3,17.6-3.1,28.7,0.2c-3.9,1.9-5.8,3.7-7.5,3.5C1864.4,739.7,1856.9,740.9,1850.4,736.8z"/>
<path class="st0" d="M1883.6,742.8c0,5.8,0.2,11.6-0.2,17.3c-0.1,1.3-2.5,2.5-3.8,3.7c-1.1-1.5-3.3-3.1-3.1-4.4
	c1-5.7,2.6-11.3,4-16.9L1883.6,742.8z"/>
<path class="st0" d="M1791,738.1c7.8-4.7,21.3-4.4,28.3,0C1809.1,741.6,1800,738.4,1791,738.1z"/>
<path class="st0" d="M1664.6,769c-4.3-1.4-6.5-4.2-6-8.9c0.3-4.2,1-8.4,1.9-12.5c3.1,7,8.1,13.5,3.8,21.6L1664.6,769z"/>
<path class="st0" d="M1903.5,745.2c1.4,4.5,3.1,9,4.1,13.7c0.5,2.5-0.1,5.9-3.8,5.3c-1.4-0.2-3.3-3.2-3.3-4.9
	c-0.1-4.7,0.7-9.4,1.2-14.1H1903.5z"/>
<path class="st0" d="M1718.9,791.7c0-4-0.4-8,0.2-11.9c0.3-1.8,2.4-4.6,3.8-4.7c3.6-0.1,4.1,3.3,3.4,5.8c-1.1,4-3.1,7.7-4.8,11.5
	L1718.9,791.7z"/>
<path class="st0" d="M1695.6,740.7c-8.7,2.2-17.5,1.5-26.2,1C1675,738.2,1685.5,737.6,1695.6,740.7z"/>
<path class="st0" d="M1941.4,764.9c-4.3-7.7-0.8-13.8,3-19.9C1946.3,752.1,1945.7,758.8,1941.4,764.9z"/>
<path class="st0" d="M1840.4,792.1c-0.7-6-3.3-12.2,2.1-18.6C1846.1,780.9,1844.4,786.6,1840.4,792.1z"/>
<path class="st0" d="M1760.7,764.2c-3.2-9-2.8-11.7,2.5-20.7C1766.1,751.5,1765.6,756,1760.7,764.2z"/>
<path class="st0" d="M1878,793.9c-2.2-7.5-3.6-13.2-0.2-20c1.6,1.1,3.7,1.8,3.9,2.7C1882.8,782.6,1881.5,788.8,1878,793.9z"/>
<path class="st0" d="M1784.4,773.7c3.6,7.2-0.5,12.6-2.1,19.2C1778.3,787.2,1779.2,779,1784.4,773.7z"/>
<path class="st0" d="M1819.9,766.2c-3.8-8-1.7-15.2,4-23.8c1.5,9.5,1.3,16.9-4.2,23.6C1819.7,766.1,1819.9,766.2,1819.9,766.2z"/>
<path class="st0" d="M1902.1,794.4c-2.4-6.4-4-12.8,0.8-19.7C1908.7,782.2,1902.4,788.2,1902.1,794.4z"/>
<path class="st0" d="M1660.1,795.3c-1.5-5.8-2.9-11.8,0-17.8C1665.9,781.8,1665.9,781.8,1660.1,795.3z"/>
<path class="st0" d="M1723.8,764.7c-5.3-6.7-1.5-12.6-0.2-18.5C1724.6,752,1729.7,757.8,1723.8,764.7z"/>
<path class="st0" d="M1783.6,746.4c1.8,5.1,5.4,10.2,0.8,16.7C1779.1,757,1781.8,751.7,1783.6,746.4z"/>
<path class="st0" d="M1842.4,745.3c3.1,10.8,3.1,10.8-0.3,17C1838.9,756.1,1840.9,750.7,1842.4,745.3z"/>
<path class="st0" d="M1795.1,767.6c-2.2,1.4-3.5,2.8-4.6,2.6s-1.9-1.9-2.8-2.9c0.9-0.7,1.8-2.1,2.6-2
	C1791.6,765.4,1792.8,766.4,1795.1,767.6z"/>
<path class="st0" d="M1664.3,769.2l9.6,0.8c-5.8,4.3-5.8,4.3-9.3-1L1664.3,769.2z"/>
<path class="st0" d="M1734.2,769.8c-1.7,1.2-2.8,2.6-3.5,2.3c-1.2-0.4-2-1.7-3-2.7c1-0.7,1.9-1.8,2.9-1.9S1732.5,768.7,1734.2,769.8
	z"/>
<path class="st0" d="M1912.3,765.8c0.4,1.3,1.1,2.6,1,3.9c-0.1,1-1.2,2.5-2,2.5c-1.2-0.1-2.2-0.8-2.8-1.9c-0.3-0.7,0.8-1.9,1.3-2.9
	L1912.3,765.8z"/>
<path class="st0" d="M1666.8,776.8l-4-3"/>
<path class="st0" d="M1912.5,762.8l-9,6"/>
<path class="st0" d="M1940.5,768.8l-5-4"/>
<path class="st0" d="M1784.7,770.8l5,4"/>
<path class="st0" d="M1880.6,738.8l-4,4"/>
<path class="st0" d="M1762.7,738.8c-1.3,1.3-2.7,2.7-4,4"/>
<path class="st0" d="M310.4,1235.6c-1.8,9.3-2.3,10.4-8.9,10.5c-14.3,0.3-28.6,0.2-42.9,0.1c-1.9,0-4.2-0.4-5.6-1.5
	c-1.6-1.3-3.5-3.8-3.2-5.5s2.8-3.3,4.6-4.3c1.3-0.7,3.2-0.6,4.9-0.6c15,0,29.9-0.1,44.9,0C306.1,1234.3,307.9,1235.1,310.4,1235.6z"
	/>
<path class="st3" d="M261.1,1223.7c0.1-12.7,9.9-19.5,21.6-14.9c6.1,2.4,11.2,6,13.7,12.3c2.6,6.8,5.1,13.7,7.3,20.7
	c2,6.4-0.2,12-5.2,16.1c-4.8,4-10.5,4-16,1.7c-2.4-1.1-4.7-2.5-6.7-4.2C266.7,1247.6,261,1235,261.1,1223.7z"/>
<path class="st4" d="M305.4,1231.8c-2.2,8.6-3.5,17.6-6.8,25.7c-3.5,8.7-14.5,15.1-25.8,9c-6.8-3.7-12.6-8.3-16.6-15.2
	c-3.1-5.4-7.5-10.2-10.4-15.7c-5-9.4-2-13.9,8.8-14.8c5.6-0.5,11.3-0.8,16.7-2c6.1-1.3,12.1-3.3,17.8-5.7c7.1-3.1,12.2-1.1,13.9,6.6
	c0.8,3.9,1,7.9,1.4,11.8L305.4,1231.8z"/>
<path class="st5" d="M286.4,1224c13,0.7,24.4,9.1,33.6,21.1c2.2,2.8,2.8,6.1,0.1,9.1c-3,3.2-6.5,3.1-9.8,0.6c-3.1-2.4-6.6-4.8-8.8-8
	c-6.8-10.1-27.6-11.4-37.3-0.9c-1.9,2.3-4,4.4-6.2,6.4c-1.7,1.5-3.8,3.4-5.8,3.5c-2.7,0.1-6-0.8-7.8-2.5c-1.2-1.2-1-5.3,0.3-7
	C254.3,1233.3,266.2,1223.9,286.4,1224z"/>
<path class="st0" d="M271.8,1554.8c-4.1,5.2-6.5,9.8-10.2,12.7c-28,22.3-59.5,23.9-88.4,0.1c-10.7-8.8-16.9-21.5-18.4-35.6
	c-0.6-7.3-0.5-14.6,0.3-21.9c0.7-7.2,4.1-8.5,9.9-4.3c28,20.3,58.9,34.5,92.2,43.8C261.5,1550.7,265.4,1552.4,271.8,1554.8z"/>
<path class="st6" d="M164.8,1193.1c-22.5,0.9-48-18.6-55.9-42.4c-3.9-11.9-3.1-14.5,8.4-18.8c19.9-7.5,39.9-14.8,59.8-22.3
	c11.8-4.4,23.6-9.1,35.3-13.6c6.6-2.5,8.7-2.1,12.4,4c11.1,18,12.8,37,3.6,56.2C216.7,1180.8,196.6,1192.7,164.8,1193.1z"/>
<path class="st7" d="M165,1063.4c31.1-0.2,55.2,15.5,63.9,38c7.1,18.4,6.1,36.7-3.3,54c-2.9,5.4-7.9,9.7-12.1,14.4
	c-3.3,3.7-6.7,3.5-10.5,0.5c-13-10.3-28-16.3-44-20.2c-13.3-3.2-26.9-4.4-40.5-3.7c-9.6,0.4-10.7-0.5-12-10.2
	c-2.3-17-0.4-32.8,10.6-47.2C130.7,1071.4,148.5,1064.2,165,1063.4z"/>
<path class="st8" d="M132.9,1157.9c33.3-9.3,64.2-23.5,92.2-43.8c5.8-4.2,9.2-2.9,9.9,4.3c0.8,7.3,0.9,14.6,0.3,21.9
	c-1.5,14.1-7.7,26.8-18.4,35.6c-28.9,23.8-60.4,22.2-88.4-0.1c-3.7-2.9-6.1-7.5-10.2-12.7C124.7,1160.7,128.6,1159,132.9,1157.9z"/>
</svg>
