{
  "asset": {
    "version": "2.0",
    "generator": "GLTFExporter"
  },
  "scenes": [
    {
      "name": "Scene",
      "nodes": [
        2
      ]
    }
  ],
  "scene": 0,
  "nodes": [
    {
      "matrix": [
        0.09085072920827464,
        3.4500266151114605e-8,
        0.06361440729193883,
        0,
        -0.06361445857368436,
        -3.495003292462031e-8,
        0.09085080691315155,
        0,
        4.574530841245689e-8,
        -0.11090828925033609,
        -9.648659662204233e-9,
        0,
        -20.085681915283203,
        13.043120384216309,
        -28.325998306274414,
        1
      ],
      "name": "welcome_area_baord_geo",
      "extras": {
        "name": "welcome_area_baord_geo"
      },
      "mesh": 0
    },
    {
      "matrix": [
        0.090850773336004,
        3.6729327357777974e-8,
        0.06361443497724993,
        0,
        -0.06361448198551403,
        -3.495004701181827e-8,
        0.09085084423491209,
        0,
        4.797436162176327e-8,
        -0.11090831089926305,
        -8.243031976593995e-9,
        0,
        -20.08568572998047,
        13.043121337890625,
        -28.326013565063477,
        1
      ],
      "name": "welcomearea_text_geo",
      "extras": {
        "name": "welcomearea_text_geo"
      },
      "mesh": 1
    },
    {
      "name": "tmone_scene_2.glb",
      "children": [
        0,
        1
      ]
    }
  ],
  "bufferViews": [
    {
      "buffer": 0,
      "byteOffset": 0,
      "byteLength": 96,
      "target": 34962,
      "byteStride": 12
    },
    {
      "buffer": 0,
      "byteOffset": 96,
      "byteLength": 96,
      "target": 34962,
      "byteStride": 12
    },
    {
      "buffer": 0,
      "byteOffset": 192,
      "byteLength": 64,
      "target": 34962,
      "byteStride": 8
    },
    {
      "buffer": 0,
      "byteOffset": 256,
      "byteLength": 24,
      "target": 34963
    },
    {
      "buffer": 0,
      "byteOffset": 280,
      "byteLength": 28824,
      "target": 34962,
      "byteStride": 12
    },
    {
      "buffer": 0,
      "byteOffset": 29104,
      "byteLength": 28824,
      "target": 34962,
      "byteStride": 12
    },
    {
      "buffer": 0,
      "byteOffset": 57928,
      "byteLength": 19216,
      "target": 34962,
      "byteStride": 8
    },
    {
      "buffer": 0,
      "byteOffset": 77144,
      "byteLength": 12864,
      "target": 34963
    }
  ],
  "buffers": [
    {
      "byteLength": 90008,
      "uri": "data:application/octet-stream;base64,"
    }
  ],
  "accessors": [
    {
      "bufferView": 0,
      "componentType": 5126,
      "count": 8,
      "max": [
        401.4759826660156,
        207.89707946777344,
        -27.40139389038086
      ],
      "min": [
        266.23370361328125,
        204.44151306152344,
        -43.2675895690918
      ],
      "type": "VEC3"
    },
    {
      "bufferView": 1,
      "componentType": 5126,
      "count": 8,
      "max": [
        0.0000010249123079120182,
        0.9999995827674866,
        0.00087305175838992
      ],
      "min": [
        -0.000001016015744426113,
        -0.9999996423721313,
        -0.0008730514673516154
      ],
      "type": "VEC3"
    },
    {
      "bufferView": 2,
      "componentType": 5126,
      "count": 8,
      "max": [
        1,
        1
      ],
      "min": [
        0,
        0
      ],
      "type": "VEC2"
    },
    {
      "bufferView": 3,
      "componentType": 5123,
      "count": 12,
      "max": [
        7
      ],
      "min": [
        0
      ],
      "type": "SCALAR"
    },
    {
      "bufferView": 4,
      "componentType": 5126,
      "count": 2402,
      "max": [
        403.04412841796875,
        208.44984436035156,
        -25.875389099121094
      ],
      "min": [
        264.66552734375,
        204.440185546875,
        -44.79359436035156
      ],
      "type": "VEC3"
    },
    {
      "bufferView": 5,
      "componentType": 5126,
      "count": 2402,
      "max": [
        1,
        0.9999997615814209,
        0.9999997019767761
      ],
      "min": [
        -1,
        -0.9999997615814209,
        -0.9999997019767761
      ],
      "type": "VEC3"
    },
    {
      "bufferView": 6,
      "componentType": 5126,
      "count": 2402,
      "max": [
        220.576416015625,
        1.659999966621399
      ],
      "min": [
        -220.576416015625,
        -38.119998931884766
      ],
      "type": "VEC2"
    },
    {
      "bufferView": 7,
      "componentType": 5123,
      "count": 6432,
      "max": [
        2401
      ],
      "min": [
        0
      ],
      "type": "SCALAR"
    }
  ],
  "materials": [
    {
      "pbrMetallicRoughness": {
        "baseColorFactor": [
          0.0117647061124444,
          0.09019608050584793,
          0.43529412150382996,
          0.5
        ],
        "metallicFactor": 1,
        "roughnessFactor": 0.858578622341156
      },
      "doubleSided": true,
      "name": "text_blue_mat"
    },
    {
      "pbrMetallicRoughness": {
        "metallicFactor": 1,
        "roughnessFactor": 0.858578622341156
      },
      "doubleSided": true,
      "name": "text_white_mat"
    }
  ],
  "meshes": [
    {
      "primitives": [
        {
          "mode": 4,
          "attributes": {
            "POSITION": 0,
            "NORMAL": 1,
            "TEXCOORD_0": 2
          },
          "indices": 3,
          "material": 0
        }
      ]
    },
    {
      "primitives": [
        {
          "mode": 4,
          "attributes": {
            "POSITION": 4,
            "NORMAL": 5,
            "TEXCOORD_0": 6
          },
          "indices": 7,
          "material": 1
        }
      ]
    }
  ]
}