{
  "asset": {
    "version": "2.0",
    "generator": "GLTFExporter"
  },
  "scenes": [
    {
      "name": "Scene",
      "nodes": [
        2
      ]
    }
  ],
  "scene": 0,
  "nodes": [
    {
      "matrix": [
        0.09085063551152858,
        9.48841287646344e-8,
        0.06361455858243902,
        0,
        -0.063614699607626,
        1.0196232243236326e-8,
        0.09085085561778887,
        0,
        6.114892400264779e-8,
        -0.1109083258373047,
        5.939340321188344e-8,
        0,
        -20.08570098876953,
        13.043118476867676,
        -28.32602882385254,
        1
      ],
      "name": "datacentre_text_geo",
      "extras": {
        "name": "datacentre_text_geo"
      },
      "mesh": 0
    },
    {
      "matrix": [
        0.09085073623642786,
        3.343565606815479e-8,
        0.0636143961467166,
        0,
        -0.06361443888150296,
        -1.1495137892490723e-8,
        0.09085079822091417,
        0,
        3.343566280656169e-8,
        -0.11090830808800468,
        9.589322308289825e-9,
        0,
        -20.085697174072266,
        13.043123245239258,
        -28.326004028320312,
        1
      ],
      "name": "datacentre_board_geo",
      "extras": {
        "name": "datacentre_board_geo"
      },
      "mesh": 1
    },
    {
      "name": "tmone_scene_2.glb",
      "children": [
        0,
        1
      ]
    }
  ],
  "bufferViews": [
    {
      "buffer": 0,
      "byteOffset": 0,
      "byteLength": 40584,
      "target": 34962,
      "byteStride": 12
    },
    {
      "buffer": 0,
      "byteOffset": 40584,
      "byteLength": 40584,
      "target": 34962,
      "byteStride": 12
    },
    {
      "buffer": 0,
      "byteOffset": 81168,
      "byteLength": 27056,
      "target": 34962,
      "byteStride": 8
    },
    {
      "buffer": 0,
      "byteOffset": 108224,
      "byteLength": 18552,
      "target": 34963
    },
    {
      "buffer": 0,
      "byteOffset": 126776,
      "byteLength": 96,
      "target": 34962,
      "byteStride": 12
    },
    {
      "buffer": 0,
      "byteOffset": 126872,
      "byteLength": 96,
      "target": 34962,
      "byteStride": 12
    },
    {
      "buffer": 0,
      "byteOffset": 126968,
      "byteLength": 64,
      "target": 34962,
      "byteStride": 8
    },
    {
      "buffer": 0,
      "byteOffset": 127032,
      "byteLength": 24,
      "target": 34963
    }
  ],
  "buffers": [
    {
      "byteLength": 127056,
      "uri": "data:application/octet-stream;base64,"
    }
  ],
  "accessors": [
    {
      "bufferView": 0,
      "componentType": 5126,
      "count": 3382,
      "max": [
        78.4620132446289,
        2.5525147914886475,
        4.644453048706055
      ],
      "min": [
        -78.4620132446289,
        -1.7203137874603271,
        -14.259413719177246
      ],
      "type": "VEC3"
    },
    {
      "bufferView": 1,
      "componentType": 5126,
      "count": 3382,
      "max": [
        1,
        1,
        1
      ],
      "min": [
        -1,
        -1,
        -1
      ],
      "type": "VEC3"
    },
    {
      "bufferView": 2,
      "componentType": 5126,
      "count": 3382,
      "max": [
        271.1399841308594,
        1.659999966621399
      ],
      "min": [
        -271.14007568359375,
        -38.119998931884766
      ],
      "type": "VEC2"
    },
    {
      "bufferView": 3,
      "componentType": 5123,
      "count": 9276,
      "max": [
        3381
      ],
      "min": [
        0
      ],
      "type": "SCALAR"
    },
    {
      "bufferView": 4,
      "componentType": 5126,
      "count": 8,
      "max": [
        76.81389617919922,
        1.7213053703308105,
        3.1185803413391113
      ],
      "min": [
        -76.81389617919922,
        -1.7203279733657837,
        -12.733542442321777
      ],
      "type": "VEC3"
    },
    {
      "bufferView": 5,
      "componentType": 5126,
      "count": 8,
      "max": [
        3.817652327597898e-7,
        1,
        8.272094476069469e-8
      ],
      "min": [
        -3.814186868567049e-7,
        -1,
        -7.520085176793145e-8
      ],
      "type": "VEC3"
    },
    {
      "bufferView": 6,
      "componentType": 5126,
      "count": 8,
      "max": [
        1,
        1
      ],
      "min": [
        0,
        0
      ],
      "type": "VEC2"
    },
    {
      "bufferView": 7,
      "componentType": 5123,
      "count": 12,
      "max": [
        7
      ],
      "min": [
        0
      ],
      "type": "SCALAR"
    }
  ],
  "materials": [
    {
      "pbrMetallicRoughness": {
        "metallicFactor": 1,
        "roughnessFactor": 0.858578622341156
      },
      "doubleSided": true,
      "name": "text_white_mat.001"
    },
    {
      "pbrMetallicRoughness": {
        "baseColorFactor": [
          0.0117647061124444,
          0.09019608050584793,
          0.43529412150382996,
          0.5
        ],
        "metallicFactor": 1,
        "roughnessFactor": 0.858578622341156
      },
      "doubleSided": true,
      "name": "text_blue_mat.001"
    }
  ],
  "meshes": [
    {
      "primitives": [
        {
          "mode": 4,
          "attributes": {
            "POSITION": 0,
            "NORMAL": 1,
            "TEXCOORD_0": 2
          },
          "indices": 3,
          "material": 0
        }
      ]
    },
    {
      "primitives": [
        {
          "mode": 4,
          "attributes": {
            "POSITION": 4,
            "NORMAL": 5,
            "TEXCOORD_0": 6
          },
          "indices": 7,
          "material": 1
        }
      ]
    }
  ]
}