{
  "asset": {
    "version": "2.0",
    "generator": "GLTFExporter"
  },
  "scenes": [
    {
      "name": "Scene",
      "nodes": [
        0
      ]
    }
  ],
  "scene": 0,
  "nodes": [
    {
      "matrix": [
        0.025157,
        0,
        0,
        0,
        0,
        0.025157,
        0,
        0,
        0,
        0,
        0.025157,
        0,
        0,
        0,
        0,
        1
      ],
      "name": "start_geo001",
      "extras": {
        "name": "start_geo001"
      },
      "mesh": 0
    }
  ],
  "bufferViews": [
    {
      "buffer": 0,
      "byteOffset": 0,
      "byteLength": 1968,
      "target": 34962,
      "byteStride": 12
    },
    {
      "buffer": 0,
      "byteOffset": 1968,
      "byteLength": 1968,
      "target": 34962,
      "byteStride": 12
    },
    {
      "buffer": 0,
      "byteOffset": 3936,
      "byteLength": 1312,
      "target": 34962,
      "byteStride": 8
    },
    {
      "buffer": 0,
      "byteOffset": 5248,
      "byteLength": 960,
      "target": 34963
    }
  ],
  "buffers": [
    {
      "byteLength": 6208,
      "uri": "data:application/octet-stream;base64,"
    }
  ],
  "accessors": [
    {
      "bufferView": 0,
      "componentType": 5126,
      "count": 164,
      "max": [
        18.952274322509766,
        3.5973379611968994,
        18.95207977294922
      ],
      "min": [
        -18.952255249023438,
        -3.597337007522583,
        -18.95207977294922
      ],
      "type": "VEC3"
    },
    {
      "bufferView": 1,
      "componentType": 5126,
      "count": 164,
      "max": [
        0.9995949864387512,
        0.0016580000519752502,
        0.999563992023468
      ],
      "min": [
        -0.9995669722557068,
        0.00164899998344481,
        -0.9995909929275513
      ],
      "type": "VEC3"
    },
    {
      "bufferView": 2,
      "componentType": 5126,
      "count": 164,
      "max": [
        0.9938679933547974,
        0.6926519870758057
      ],
      "min": [
        -0.0036430000327527523,
        0.4874800145626068
      ],
      "type": "VEC2"
    },
    {
      "bufferView": 3,
      "componentType": 5123,
      "count": 480,
      "max": [
        163
      ],
      "min": [
        0
      ],
      "type": "SCALAR"
    }
  ],
  "materials": [
    {
      "pbrMetallicRoughness": {
        "baseColorFactor": [
          0.050980392156862744,
          0.050980392156862744,
          0.050980392156862744,
          0.5
        ],
        "metallicFactor": 1,
        "roughnessFactor": 0.858579
      },
      "alphaMode": "BLEND",
      "doubleSided": true,
      "name": "18 - Rubber"
    }
  ],
  "meshes": [
    {
      "primitives": [
        {
          "mode": 4,
          "attributes": {
            "POSITION": 0,
            "NORMAL": 1,
            "TEXCOORD_0": 2
          },
          "indices": 3,
          "material": 0
        }
      ]
    }
  ]
}