{"asset":{"version":"2.0","generator":"babylon.js glTF exporter for 3dsmax 2022 v20210802.1"},"scene":0,"scenes":[{"nodes":[0,30,53,76]}],"nodes":[{"children":[1],"name":"main_ctrl"},{"children":[2,20,22,24,26,28],"name":"char_ctrl"},{"children":[3,4,5,6,7,8,9,10,11,12,13,14,15,16,17,18],"name":"TMrobot_body"},{"name":"body_1"},{"name":"body_2"},{"name":"body_3"},{"name":"body_4"},{"name":"body_5"},{"name":"body_7"},{"name":"body_8"},{"name":"body_9"},{"name":"body_10"},{"name":"body_11"},{"name":"body_12"},{"name":"body_13"},{"name":"body_14"},{"name":"body_15"},{"name":"body_28"},{"children":[19],"name":"Bone001"},{"name":"body_6"},{"children":[21],"name":"happyEyemouth_1"},{"name":"happyEyemouth_1 (1)"},{"children":[23],"name":"happyEye_3"},{"name":"happyEye_3 (1)"},{"children":[25],"name":"happyMouth_1"},{"name":"happyMouth_1 (1)"},{"children":[27],"name":"happyMouth_2"},{"name":"happyMouth_2 (1)"},{"children":[29],"name":"sleepEye_3"},{"name":"sleepEye_3 (1)"},{"children":[31],"name":"r_hand_ctrl"},{"children":[32,33,34,35,36,37,38,43,48],"name":"TMrobot_R_hand"},{"name":"arm_2"},{"name":"arm_5"},{"name":"arm_10"},{"name":"button"},{"name":"forearm"},{"name":"arm_1"},{"children":[39,42],"name":"TMrobot_R_little1"},{"children":[40,41],"name":"TMrobot_R_little2"},{"name":"r_little_low"},{"name":"r_little_mid"},{"name":"r_little_up"},{"children":[44,47],"name":"TMrobot_R_index1"},{"children":[45,46],"name":"TMrobot_R_index2"},{"name":"r_index_low"},{"name":"r_index_mid"},{"name":"r_index_up"},{"children":[49,52],"name":"TMrobot_R_thumb1"},{"children":[50,51],"name":"TMrobot_R_thumb2"},{"name":"r_thumb_low"},{"name":"r_thumb_mid"},{"name":"r_thumb"},{"children":[54],"name":"l_hand_ctrl"},{"children":[55,56,57,58,59,60,61,66,71],"name":"TMrobot_L_hand"},{"name":"arm_1 (1)"},{"name":"arm_2 (1)"},{"name":"arm_5 (1)"},{"name":"arm_9"},{"name":"button (1)"},{"name":"forearm (1)"},{"children":[62,65],"name":"TMrobot_L_index1"},{"children":[63,64],"name":"TMrobot_L_index2"},{"name":"l_index_low"},{"name":"l_index_mid"},{"name":"l_index_up"},{"children":[67,70],"name":"TMrobot_L_little1"},{"children":[68,69],"name":"TMrobot_L_little2"},{"name":"l_little_low"},{"name":"l_little_mid"},{"name":"l_little_up"},{"children":[72,75],"name":"TMrobot_L_thumb1"},{"children":[73,74],"name":"TMrobot_L_thumb2"},{"name":"thumb_low"},{"name":"thumb_mid"},{"name":"thumb_up"},{"children":[77],"name":"hat_ctrl"},{"children":[78,79,80],"name":"TMrobot_hat"},{"name":"mid"},{"name":"low"},{"name":"top"}],"accessors":[{"bufferView":0,"componentType":5126,"count":101,"max":[3.33333325],"min":[0.0],"type":"SCALAR","name":"accessorAnimationInput"},{"bufferView":1,"componentType":5126,"count":101,"type":"VEC3","name":"accessorAnimationPositions"},{"bufferView":0,"byteOffset":404,"componentType":5126,"count":101,"max":[3.33333325],"min":[0.0],"type":"SCALAR","name":"accessorAnimationInput"},{"bufferView":2,"componentType":5126,"count":101,"type":"VEC4","name":"accessorAnimationRotations"},{"bufferView":0,"byteOffset":808,"componentType":5126,"count":71,"max":[3.33333325],"min":[0.0],"type":"SCALAR","name":"accessorAnimationInput"},{"bufferView":1,"byteOffset":1212,"componentType":5126,"count":71,"type":"VEC3","name":"accessorAnimationScales"},{"bufferView":0,"byteOffset":1092,"componentType":5126,"count":101,"max":[3.33333325],"min":[0.0],"type":"SCALAR","name":"accessorAnimationInput"},{"bufferView":1,"byteOffset":2064,"componentType":5126,"count":101,"type":"VEC3","name":"accessorAnimationPositions"},{"bufferView":0,"byteOffset":1496,"componentType":5126,"count":101,"max":[3.33333325],"min":[0.0],"type":"SCALAR","name":"accessorAnimationInput"},{"bufferView":2,"byteOffset":1616,"componentType":5126,"count":101,"type":"VEC4","name":"accessorAnimationRotations"},{"bufferView":0,"byteOffset":1900,"componentType":5126,"count":77,"max":[3.33333325],"min":[0.0],"type":"SCALAR","name":"accessorAnimationInput"},{"bufferView":1,"byteOffset":3276,"componentType":5126,"count":77,"type":"VEC3","name":"accessorAnimationScales"},{"bufferView":0,"byteOffset":2208,"componentType":5126,"count":90,"max":[3.33333325],"min":[0.0],"type":"SCALAR","name":"accessorAnimationInput"},{"bufferView":1,"byteOffset":4200,"componentType":5126,"count":90,"type":"VEC3","name":"accessorAnimationScales"},{"bufferView":0,"byteOffset":2568,"componentType":5126,"count":94,"max":[3.33333325],"min":[0.0],"type":"SCALAR","name":"accessorAnimationInput"},{"bufferView":1,"byteOffset":5280,"componentType":5126,"count":94,"type":"VEC3","name":"accessorAnimationScales"},{"bufferView":0,"byteOffset":2944,"componentType":5126,"count":101,"max":[3.33333325],"min":[0.0],"type":"SCALAR","name":"accessorAnimationInput"},{"bufferView":1,"byteOffset":6408,"componentType":5126,"count":101,"type":"VEC3","name":"accessorAnimationPositions"},{"bufferView":0,"byteOffset":3348,"componentType":5126,"count":101,"max":[3.33333325],"min":[0.0],"type":"SCALAR","name":"accessorAnimationInput"},{"bufferView":2,"byteOffset":3232,"componentType":5126,"count":101,"type":"VEC4","name":"accessorAnimationRotations"},{"bufferView":0,"byteOffset":3752,"componentType":5126,"count":96,"max":[3.33333325],"min":[0.0],"type":"SCALAR","name":"accessorAnimationInput"},{"bufferView":1,"byteOffset":7620,"componentType":5126,"count":96,"type":"VEC3","name":"accessorAnimationScales"},{"bufferView":0,"byteOffset":4136,"componentType":5126,"count":77,"max":[3.33333325],"min":[0.0],"type":"SCALAR","name":"accessorAnimationInput"},{"bufferView":1,"byteOffset":8772,"componentType":5126,"count":77,"type":"VEC3","name":"accessorAnimationScales"},{"bufferView":0,"byteOffset":4444,"componentType":5126,"count":96,"max":[3.33333325],"min":[0.0],"type":"SCALAR","name":"accessorAnimationInput"},{"bufferView":1,"byteOffset":9696,"componentType":5126,"count":96,"type":"VEC3","name":"accessorAnimationScales"},{"bufferView":0,"byteOffset":4828,"componentType":5126,"count":101,"max":[3.33333325],"min":[0.0],"type":"SCALAR","name":"accessorAnimationInput"},{"bufferView":1,"byteOffset":10848,"componentType":5126,"count":101,"type":"VEC3","name":"accessorAnimationPositions"},{"bufferView":0,"byteOffset":5232,"componentType":5126,"count":101,"max":[3.33333325],"min":[0.0],"type":"SCALAR","name":"accessorAnimationInput"},{"bufferView":2,"byteOffset":4848,"componentType":5126,"count":101,"type":"VEC4","name":"accessorAnimationRotations"}],"bufferViews":[{"buffer":0,"byteLength":5636,"name":"bufferViewAnimationFloatScalar"},{"buffer":0,"byteOffset":5636,"byteLength":12060,"name":"bufferViewAnimationFloatVec3"},{"buffer":0,"byteOffset":17696,"byteLength":6464,"name":"bufferViewAnimationFloatVec4"}],"buffers":[{"uri":"ioc-intro.bin","byteLength":24160}],"animations":[{"channels":[{"sampler":0,"target":{"node":1,"path":"translation"}},{"sampler":1,"target":{"node":1,"path":"rotation"}},{"sampler":2,"target":{"node":18,"path":"scale"}},{"sampler":3,"target":{"node":30,"path":"translation"}},{"sampler":4,"target":{"node":30,"path":"rotation"}},{"sampler":5,"target":{"node":38,"path":"scale"}},{"sampler":6,"target":{"node":43,"path":"scale"}},{"sampler":7,"target":{"node":48,"path":"scale"}},{"sampler":8,"target":{"node":53,"path":"translation"}},{"sampler":9,"target":{"node":53,"path":"rotation"}},{"sampler":10,"target":{"node":61,"path":"scale"}},{"sampler":11,"target":{"node":66,"path":"scale"}},{"sampler":12,"target":{"node":71,"path":"scale"}},{"sampler":13,"target":{"node":76,"path":"translation"}},{"sampler":14,"target":{"node":76,"path":"rotation"}}],"samplers":[{"input":0,"output":1},{"input":2,"output":3},{"input":4,"output":5},{"input":6,"output":7},{"input":8,"output":9},{"input":10,"output":11},{"input":12,"output":13},{"input":14,"output":15},{"input":16,"output":17},{"input":18,"output":19},{"input":20,"output":21},{"input":22,"output":23},{"input":24,"output":25},{"input":26,"output":27},{"input":28,"output":29}],"name":"All Animations"}]}