<svg xmlns="http://www.w3.org/2000/svg" viewBox="0 0 897.14 884.28"><defs><style>.cls-1,.cls-10,.cls-11,.cls-13,.cls-14,.cls-16,.cls-17,.cls-3,.cls-4,.cls-5,.cls-7,.cls-8,.cls-9{fill:none;stroke:#010101;stroke-miterlimit:10;}.cls-2{opacity:0.48;}.cls-3,.cls-4,.cls-5,.cls-7{stroke-width:20px;}.cls-4{stroke-dasharray:31.9 10.63 42.53 63.79;}.cls-5{stroke-dasharray:53.16 21.26 31.9 10.63 42.53 63.79;}.cls-6{opacity:0.25;}.cls-7{stroke-dasharray:50.44 5.04;}.cls-10,.cls-11,.cls-14,.cls-8,.cls-9{stroke-width:10px;}.cls-9{stroke-dasharray:1.02 20.3;}.cls-10{stroke-dasharray:1 5;}.cls-11{opacity:0.14;}.cls-12,.cls-19{fill:#010101;}.cls-12,.cls-13{opacity:0.57;}.cls-14,.cls-15{opacity:0.1;}.cls-16,.cls-17{stroke-width:40px;}.cls-17{stroke-dasharray:31.39 20.92;}.cls-18{opacity:0.23;}.cls-20{opacity:0.15;}.cls-21{opacity:0.13;}.cls-22{opacity:0.05;}.cls-23{opacity:0.04;}.cls-24{opacity:0.01;}</style></defs><g id="Layer_2" data-name="Layer 2"><g id="Layer_1-2" data-name="Layer 1"><circle class="cls-1" cx="442.14" cy="442.14" r="407.29"/><circle class="cls-1" cx="442.14" cy="442.14" r="400.33"/><circle class="cls-1" cx="442.14" cy="442.14" r="441.64"/><circle class="cls-1" cx="442.14" cy="442.14" r="333"/><g class="cls-2"><path class="cls-3" d="M50,283.15q4.71-11.59,10.08-22.87"/><path class="cls-4" d="M69.7,241.31a423.24,423.24,0,0,1,68.94-94"/><path class="cls-5" d="M161.71,125.27q9.93-8.79,20.44-17A423.1,423.1,0,0,1,328.39,34.58"/><path class="cls-3" d="M359.41,27.17q12.24-2.45,24.65-4.17"/></g><g class="cls-6"><path class="cls-3" d="M50,283.15q4.71-11.59,10.08-22.87"/><path class="cls-7" d="M62.27,255.74A423.08,423.08,0,0,1,356.94,27.67"/><path class="cls-3" d="M359.41,27.17q12.24-2.45,24.65-4.17"/></g><path class="cls-8" d="M442.14,559.74h-.5"/><path class="cls-9" d="M421.44,557.93A117.61,117.61,0,1,1,559.27,431.49"/><path class="cls-8" d="M559.74,441.64v.5"/><path class="cls-8" d="M442.14,163.14h.5"/><path class="cls-10" d="M447.64,163.19c151.55,2.93,273.5,126.7,273.5,279,0,154.09-124.91,279-279,279-153.09,0-277.37-123.29-279-276"/><path class="cls-8" d="M163.14,442.64v-.5"/><path class="cls-11" d="M442.14,163.14c154.09,0,279,124.91,279,279s-124.91,279-279,279-279-124.91-279-279"/><circle class="cls-12" cx="442.14" cy="442.14" r="45"/><circle class="cls-12" cx="442.14" cy="442.14" r="31.47"/><circle class="cls-13" cx="442.14" cy="442.14" r="122.8"/><circle class="cls-13" cx="442.14" cy="442.14" r="291.67"/><circle class="cls-13" cx="442.14" cy="442.14" r="266"/><line class="cls-1" x1="441.64" y1="487.14" x2="441.64" y2="775.14"/><line class="cls-1" x1="473.61" y1="474.31" x2="752.67" y2="753.37"/><line class="cls-1" x1="487.14" y1="442.64" x2="897.14" y2="442.64"/><line class="cls-1" x1="474.31" y1="410.67" x2="677.96" y2="207.03"/><line class="cls-1" x1="442.64" y1="397.14" x2="442.64" y2="109.14"/><line class="cls-1" x1="410.67" y1="409.97" x2="159.41" y2="158.71"/><line class="cls-1" x1="409.97" y1="473.61" x2="206.32" y2="677.25"/><circle class="cls-14" cx="442.14" cy="442.14" r="279"/><circle class="cls-14" cx="442.14" cy="442.14" r="279"/><g class="cls-15"><path class="cls-16" d="M441.5,76.75h.64q7.22,0,14.36.28"/><path class="cls-17" d="M477.38,78.46C653.21,95.61,794.21,239.6,806.64,416.69"/><path class="cls-16" d="M807.22,427.14q.31,7.47.31,15"/></g><g class="cls-15"><path class="cls-16" d="M442.78,807.53h-.64q-7.22,0-14.36-.28"/><path class="cls-17" d="M406.9,805.82C231.07,788.67,90.06,644.67,77.64,467.59"/><path class="cls-16" d="M77.06,457.14q-.32-7.47-.31-15"/></g><g class="cls-18"><path class="cls-19" d="M678.94,341.88a243.87,243.87,0,0,0-52.73-79L493.72,395.49a55,55,0,0,1,16.38,39.65H697.45A244,244,0,0,0,678.94,341.88Z"/></g><g class="cls-20"><path class="cls-19" d="M539.54,202.26a248.7,248.7,0,0,0-95.4-18.93V374.86c16,0,29.48,5.58,40.64,16.74L620.21,256.17A248.72,248.72,0,0,0,539.54,202.26Z"/></g><g class="cls-21"><path class="cls-19" d="M341.4,204.53a244,244,0,0,0-79.56,53.25L395.42,391.54A56.1,56.1,0,0,1,435.14,375V185.84A245.37,245.37,0,0,0,341.4,204.53Z"/></g><g class="cls-15"><path class="cls-19" d="M201.52,343.89a251.59,251.59,0,0,0-19.14,96.25h193.7A57.24,57.24,0,0,1,393,399.27l-137-137A251.57,251.57,0,0,0,201.52,343.89Z"/></g><g class="cls-22"><path class="cls-19" d="M204.55,542.87a244.23,244.23,0,0,0,53.23,79.54L391.52,488.86A56.06,56.06,0,0,1,375,449.14H185.86A245.47,245.47,0,0,0,204.55,542.87Z"/></g><g class="cls-23"><path class="cls-19" d="M342.91,684a255.65,255.65,0,0,0,98.23,19.52V506.09a57.42,57.42,0,0,1-41.77-17.26L259.73,628.46A256.28,256.28,0,0,0,342.91,684Z"/></g><g class="cls-24"><path class="cls-19" d="M542.38,679.74a244.8,244.8,0,0,0,79.81-53.24l-134-133.76a55.29,55.29,0,0,1-40.1,16.53V698.44A244,244,0,0,0,542.38,679.74Z"/></g></g></g></svg>