<svg xmlns="http://www.w3.org/2000/svg" viewBox="0 0 128.37 123.56"><defs><style>.cls-1{fill:#7fd0dc;}</style></defs><g id="Layer_2" data-name="Layer 2"><g id="Layer_1-2" data-name="Layer 1"><path class="cls-1" d="M64.93.09c30-1.4,55.9,21.3,61.7,46.8,4.6,20.2.1,38.1-13.4,53.9-21.8,25.6-57.2,29.2-84.3,12.9C9.33,102-.57,83,0,59.09.83,27.19,28.93-1.81,64.93.09Zm-11.5,57.5h.4v29.9a26.86,26.86,0,0,0,.6,6.9c.8,3.6,3.2,6,6.9,6.1s6.1-2.5,6.8-6.1a32,32,0,0,0,.4-6.9c-.1-19.6-.2-39.1-.4-58.7a23.15,23.15,0,0,0-.4-5.9c-.9-3.5-3.2-6-7-6s-6.2,2.3-6.9,6a32,32,0,0,0-.4,6.9C53.33,39,53.43,48.29,53.43,57.59Z"/></g></g></svg>