<svg xmlns="http://www.w3.org/2000/svg" viewBox="0 0 69.94 25.03"><defs><style>.cls-1{fill:#7fd0dc;}</style></defs><g id="Layer_2" data-name="Layer 2"><g id="Layer_1-2" data-name="Layer 1"><path class="cls-1" d="M34.39,24.88c-9.5.9-17.2-2.3-24.4-6.4a31.24,31.24,0,0,1-8.1-7.3c-2.3-2.8-2.7-6.4-.1-9.1s5.9-2.2,9,0c2.2,1.5,4.4,2.9,6.7,4.2,13.8,7.5,26.8,5.1,39.3-3.4a10.77,10.77,0,0,1,2.4-1.8c3.3-1.6,6.6-1.6,9.1,1.2,2.7,3,1.8,6.2-.7,8.9-7.2,8-16.6,12-27,13.5A21.5,21.5,0,0,1,34.39,24.88Z"/></g></g></svg>