<svg xmlns="http://www.w3.org/2000/svg" viewBox="0 0 127.33 125.2"><defs><style>
.cls-1{fill:#0013ff;}</style></defs><g id="Layer_2" data-name="Layer 2"><g id="Layer_1-2
" data-name="Layer 1"><path class="cls-1" d="M64.32,0a79,79,0,0,1,39.5,13.6c19.9,13.2,29.7,48.4,19.3,72.8-15.9,37.4-55.8,46.5-85.7,32.7C9.92,106.4-5.18,80.5,1.62,49.6c4.6-20.9,18.1-36.1,38.6-43.7C47.92,2.9,56.22,1.9,64.32,0Zm-.2,14.3a36.85,36.85,0,0,0-4.7,0c-24.3,1.8-45.1,24.5-45.3,48.9-.2,17.3,8.4,30.1,21.3,39.7,10.5,7.8,23.2,12.2,36.7,9.8,15.8-2.8,29.2-9.6,38.3-24.2,8.4-13.4,9.2-27.2,4.3-41.1C107.82,28,89.42,12.8,64.12,14.3Z"/></g></g></svg>