<svg xmlns="http://www.w3.org/2000/svg" viewBox="0 0 350.78 183.74"><defs><style>.cls-1{fill:#7fd0dc;}</style></defs><g id="Layer_2" data-name="Layer 2"><g id="Layer_1-2" data-name="Layer 1"><path class="cls-1" d="M63.37.14c84.43-.52,83.81,122.5-.11,123C-20.47,123.16-21.74-.26,63.37.14Z"/><path class="cls-1" d="M201.07,156.74c-.5,2-2.5,3.8-4.4,5.1-9.5,6.8-10.1,22-22.9,21.9-12.5.2-23.8-15.9-34.1-23.7"/><path class="cls-1" d="M286.68.14c34.4-1.9,64.4,27.6,64.1,61.2-.3,35.4-29.4,61.6-64.2,61.8-33.9.2-64.3-26-64.5-62.3C221.88,28.34,253.18-2.36,286.68.14Z"/></g></g></svg>