<svg xmlns="http://www.w3.org/2000/svg" viewBox="0 0 350.78 183.74"><defs><style>.cls-1{fill:#7fd0dc;}.cls-2{fill:#00ff36;}.cls-3{fill:#0c00ff;}.cls-4{fill:#8f00ff;}.cls-5{fill:#8f82db;}</style></defs><g id="Layer_2" data-name="Layer 2"><g id="Layer_1-2" data-name="Layer 1"><path class="cls-1" d="M63.37.14c84.43-.52,83.81,122.5-.11,123C-20.47,123.16-21.74-.26,63.37.14Z"/><path class="cls-1" d="M201.07,156.74c-.52,2-2.5,3.8-4.4,5.1-9.5,6.8-10.1,22-22.9,21.9-12.5.2-23.74-16-34.1-23.7Z"/><path class="cls-1" d="M286.68.14c34.4-1.9,64.4,27.6,64.1,61.2-.3,35.4-29.4,61.6-64.2,61.8-33.9.2-64.3-26-64.5-62.3C221.88,28.34,253.18-2.36,286.68.14Z"/><path class="cls-2" d="M179.46,170.76c-15.2.2-24.8-4.4-34.3-9.2a10.48,10.48,0,0,1-4.4-3.9c-1-2.1-2-5.8-1-7a9.57,9.57,0,0,1,7.5-2.8c2.7.3,5.3,2.5,7.9,4.1q19.65,12.3,39.4,0a54.1,54.1,0,0,1,7.9-4.2c3.1-1.2,6.4-.3,7.5,2.9.7,2-.2,5-1.2,7.1-.8,1.7-2.7,3-4.4,3.9C195.26,166.36,185.76,170.26,179.46,170.76Z"/><path class="cls-1" d="M200.68,160.35c-1.8,9.3-2.3,10.4-8.9,10.5-14.3.3-28.6.2-42.9.1a9.62,9.62,0,0,1-5.6-1.5c-1.6-1.3-3.5-3.8-3.2-5.5s2.8-3.3,4.6-4.3c1.3-.7,3.2-.6,4.9-.6,15,0,29.9-.1,44.9,0C196.38,159.05,198.18,159.85,200.68,160.35Z"/><path class="cls-3" d="M139.38,135.1c.1-12.7,9.9-19.5,21.6-14.9,6.1,2.4,11.2,6,13.7,12.3,2.6,6.8,5.1,13.7,7.3,20.7,2,6.4-.2,12-5.2,16.1-4.8,4-10.5,4-16,1.7a29.05,29.05,0,0,1-6.7-4.2C145,159,139.28,146.4,139.38,135.1Z"/><path class="cls-4" d="M201.34,144.68c-2.2,8.6-3.5,17.6-6.8,25.7a18.1,18.1,0,0,1-25.8,9c-6.8-3.7-12.6-8.3-16.6-15.2-3.1-5.4-7.5-10.2-10.4-15.7-5-9.4-2-13.9,8.8-14.8,5.6-.5,11.3-.8,16.7-2A99.78,99.78,0,0,0,185,126c7.1-3.1,12.2-1.1,13.9,6.6a118.57,118.57,0,0,1,1.4,11.8Z"/><path class="cls-5" d="M178.43,148.71c13,.7,24.4,9.1,33.6,21.1,2.2,2.8,2.8,6.1.1,9.1-3,3.2-6.5,3.1-9.8.6-3.1-2.4-6.6-4.8-8.8-8-6.8-10.1-27.6-11.4-37.3-.9A62.47,62.47,0,0,1,150,177c-1.7,1.5-3.8,3.4-5.8,3.5-2.7.1-6-.8-7.8-2.5-1.2-1.2-1-5.3.3-7C146.33,158,158.23,148.61,178.43,148.71Z"/></g></g></svg>