<svg xmlns="http://www.w3.org/2000/svg" viewBox="0 0 353.67 187.47"><defs><style>.cls-1{fill:#7fd0dc;}.cls-2{fill:#0013ff;}.cls-3{fill:#00ff36;}.cls-4{fill:#0c00ff;}.cls-5{fill:#8f00ff;}.cls-6{fill:#8f82db;}.cls-7{fill:#3208ff;}.cls-8{fill:#0099a5;}.cls-9{fill:#f900d6;}</style></defs><g id="Layer_2" data-name="Layer 2"><g id="Layer_1-2" data-name="Layer 1"><path class="cls-1" d="M1,63.29c-2.8-24.2,15.8-48,37.8-57.2s55.2-3.5,71.7,14.8c17.5,19.4,22,41.2,12.4,65.5a75.45,75.45,0,0,1-7.5,14c-3,4.3-7.1,6.4-13,4a210.57,210.57,0,0,0-20.8-6.8c-20-5.8-40.1-4.7-60.2-.6-9.9,2-11.2,1.7-15.7-7.3A48,48,0,0,1,1,63.29Z"/><path class="cls-1" d="M65.81,1.76c28.9.3,58.2,20.4,65,51.7,6.1,28.2-7.9,56.9-35.4,70.3-32.4,15.8-69.7,3.2-85.8-22.4-3.5-5.5-6.7-11.8-7.9-18.1-6.4-33.1,4.9-62.9,39.1-75.8C48.71,4.56,57.41,3.56,65.81,1.76Z"/><path class="cls-2" d="M65,1.76a79,79,0,0,1,39.5,13.6c19.9,13.2,29.7,48.4,19.3,72.8-15.9,37.4-55.8,46.5-85.7,32.7-27.5-12.7-42.6-38.6-35.8-69.5,4.6-20.9,18.1-36.1,38.6-43.7C48.58,4.66,56.88,3.66,65,1.76Zm-.2,14.3a36.85,36.85,0,0,0-4.7,0C35.78,17.86,15,40.56,14.78,65c-.2,17.3,8.4,30.1,21.3,39.7,10.5,7.8,23.2,12.2,36.7,9.8,15.8-2.8,29.2-9.6,38.3-24.2,8.4-13.4,9.2-27.2,4.3-41.1C108.48,29.76,90.08,14.56,64.78,16.06Z"/><path class="cls-1" d="M66.25,3.87c84.43-.52,83.82,122.5-.1,123C-17.58,126.88-18.85,3.46,66.25,3.87Z"/><path class="cls-1" d="M204,160.47c-.52,2-2.5,3.8-4.4,5.1-9.5,6.8-10.1,22-22.9,21.9-12.5.2-23.74-16-34.1-23.7Z"/><path class="cls-1" d="M289.57,3.87C324,2,354,31.47,353.67,65.07c-.3,35.4-29.4,61.6-64.2,61.8-33.9.2-64.3-26-64.5-62.3C224.77,32.07,256.07,1.37,289.57,3.87Z"/><path class="cls-3" d="M182.34,174.48c-15.2.2-24.8-4.4-34.3-9.2a10.48,10.48,0,0,1-4.4-3.9c-1-2.1-2-5.8-1-7a9.57,9.57,0,0,1,7.5-2.8c2.7.3,5.3,2.5,7.9,4.1q19.65,12.3,39.4,0a54.1,54.1,0,0,1,7.9-4.2c3.1-1.2,6.4-.3,7.5,2.9.7,2-.2,5-1.2,7.1-.8,1.7-2.7,3-4.4,3.9C198.14,170.08,188.64,174,182.34,174.48Z"/><path class="cls-1" d="M203.57,164.08c-1.8,9.3-2.3,10.4-8.9,10.5-14.3.3-28.6.2-42.9.1a9.62,9.62,0,0,1-5.6-1.5c-1.6-1.3-3.5-3.8-3.2-5.5s2.8-3.3,4.6-4.3c1.3-.7,3.2-.6,4.9-.6,15,0,29.9-.1,44.9,0C199.27,162.78,201.07,163.58,203.57,164.08Z"/><path class="cls-4" d="M142.26,138.83c.1-12.7,9.9-19.5,21.6-14.9,6.1,2.4,11.2,6,13.7,12.3,2.6,6.8,5.1,13.7,7.3,20.7,2,6.4-.2,12-5.2,16.1-4.8,4-10.5,4-16,1.7a29.05,29.05,0,0,1-6.7-4.2C147.86,162.73,142.16,150.13,142.26,138.83Z"/><path class="cls-5" d="M204.23,148.41c-2.2,8.6-3.5,17.6-6.8,25.7a18.1,18.1,0,0,1-25.8,9c-6.8-3.7-12.6-8.3-16.6-15.2-3.1-5.4-7.5-10.2-10.4-15.7-5-9.4-2-13.9,8.8-14.8,5.6-.5,11.3-.8,16.7-2a99.78,99.78,0,0,0,17.8-5.7c7.1-3.1,12.2-1.1,13.9,6.6a118.57,118.57,0,0,1,1.4,11.8Z"/><path class="cls-6" d="M181.31,152.43c13,.7,24.4,9.1,33.6,21.1,2.2,2.8,2.8,6.1.1,9.1-3,3.2-6.5,3.1-9.8.6-3.1-2.4-6.6-4.8-8.8-8-6.8-10.1-27.6-11.4-37.3-.9a62.47,62.47,0,0,1-6.2,6.4c-1.7,1.5-3.8,3.4-5.8,3.5-2.7.1-6-.8-7.8-2.5-1.2-1.2-1-5.3.3-7C149.21,161.73,161.11,152.33,181.31,152.43Z"/><path class="cls-7" d="M61.34,129.7c-22.5.9-48-18.6-55.9-42.4-3.9-11.9-3.1-14.5,8.4-18.8,19.9-7.5,39.9-14.8,59.8-22.3,11.8-4.4,23.6-9.1,35.3-13.6,6.6-2.5,8.7-2.1,12.4,4,11.1,18,12.8,37,3.6,56.2C113.24,117.4,93.14,129.3,61.34,129.7Z"/><path class="cls-8" d="M61.52,0c31.1-.2,55.2,15.5,63.9,38,7.1,18.4,6.1,36.7-3.3,54-2.9,5.4-7.9,9.7-12.1,14.4-3.3,3.7-6.7,3.5-10.5.5-13-10.3-28-16.3-44-20.2A141.69,141.69,0,0,0,15,83c-9.6.4-10.7-.5-12-10.2-2.3-17-.4-32.8,10.6-47.2C27.22,8,45,.8,61.52,0Z"/><path class="cls-9" d="M29.38,94.49c33.3-9.3,64.2-23.5,92.2-43.8,5.8-4.2,9.2-2.9,9.9,4.3a114.49,114.49,0,0,1,.3,21.9c-1.5,14.1-7.7,26.8-18.4,35.6-28.9,23.8-60.4,22.2-88.4-.1-3.7-2.9-6.1-7.5-10.2-12.7C21.18,97.29,25.08,95.59,29.38,94.49Z"/></g></g></svg>