<?xml version="1.0" standalone="no"?>
<!DOCTYPE svg PUBLIC "-//W3C//DTD SVG 20010904//EN"
 "http://www.w3.org/TR/2001/REC-SVG-20010904/DTD/svg10.dtd">
<svg version="1.0" xmlns="http://www.w3.org/2000/svg"
 width="150.000000pt" height="150.000000pt" viewBox="0 0 150.000000 150.000000"
 preserveAspectRatio="xMidYMid meet">
<metadata>
Created by potrace 1.11, written by Peter Selinger 2001-2013
</metadata>
<g transform="translate(0.000000,150.000000) scale(0.100000,-0.100000)"
fill="#000000" stroke="none">
<path d="M888 1173 c-67 -17 -162 -65 -208 -105 -32 -27 -33 -30 -10 -23 165
46 244 55 310 32 43 -15 49 -40 20 -79 l-22 -30 33 7 c88 19 154 77 142 124
-18 72 -138 106 -265 74z"/>
<path d="M1231 1069 c-31 -15 -65 -34 -76 -43 -20 -17 -20 -17 3 -11 39 11
179 14 211 5 37 -10 45 0 30 34 -22 48 -87 54 -168 15z"/>
<path d="M125 904 c-41 -44 -33 -50 55 -49 44 1 80 0 80 -1 0 -1 -16 -59 -36
-129 -20 -69 -34 -128 -32 -130 9 -9 120 -10 127 -1 5 6 23 61 41 121 18 61
36 117 40 125 5 9 26 15 59 16 53 1 93 21 111 54 11 20 8 20 -205 20 l-216 0
-24 -26z"/>
<path d="M614 920 c-26 -10 -35 -33 -82 -197 l-38 -131 53 -4 53 -3 14 45 c8
25 24 79 36 120 23 81 36 103 37 68 0 -13 4 -63 8 -113 4 -49 8 -96 8 -102 0
-7 7 -14 16 -14 45 -3 137 3 151 11 9 5 41 49 70 97 79 132 81 135 85 131 2
-2 -11 -55 -30 -118 -19 -63 -32 -116 -30 -119 7 -6 126 -4 132 3 4 4 8 12 10
19 5 23 21 82 56 200 l35 117 -94 0 c-51 0 -103 -4 -117 -9 -15 -6 -46 -47
-87 -115 -35 -58 -65 -104 -66 -103 -1 1 -5 38 -9 82 -4 44 -9 87 -11 95 -1 8
-3 23 -3 33 -1 15 -12 17 -88 16 -49 0 -97 -4 -109 -9z"/>
<path d="M544 526 c-43 -15 -78 -46 -98 -83 -24 -47 -20 -80 13 -113 23 -23
35 -28 64 -25 79 7 147 75 147 146 0 37 -28 78 -54 80 -6 0 -18 2 -26 4 -8 1
-29 -3 -46 -9z m73 -62 c16 -24 16 -28 -1 -59 -19 -34 -52 -55 -89 -55 -54 0
-64 64 -18 111 39 38 84 40 108 3z"/>
<path d="M705 483 c-36 -128 -45 -159 -47 -167 -4 -11 25 -16 40 -7 6 3 19 40
30 81 l20 75 7 -45 c3 -25 8 -54 10 -65 2 -11 4 -27 4 -36 1 -25 61 -21 71 5
9 25 60 200 60 209 0 9 -27 2 -43 -11 -8 -7 -21 -36 -27 -65 -17 -71 -29 -91
-31 -52 -1 17 -3 39 -4 50 -2 11 -5 32 -6 48 -2 15 -6 27 -9 28 -54 10 -59 7
-75 -48z"/>
<path d="M930 525 c-7 -9 -47 -144 -56 -191 -5 -27 6 -31 72 -29 49 1 84 16
84 36 0 5 -23 9 -51 9 -43 0 -50 3 -45 16 3 9 6 20 6 25 0 5 15 9 33 7 38 -2
57 7 57 28 0 9 -11 14 -35 14 -35 0 -40 5 -29 34 4 11 19 16 49 16 41 0 77 22
61 37 -10 11 -137 9 -146 -2z"/>
</g>
</svg>
