
<svg xmlns="http://www.w3.org/2000/svg" version="1.1" xmlns:xlink="http://www.w3.org/1999/xlink" preserveAspectRatio="none" x="0px" y="0px" width="320px" height="320px" viewBox="0 0 320 320">
<defs>
<g id="Layer0_0_FILL">
<path fill="#58F4F5" stroke="none" d="
M 224.1 140.75
Q 217.45 138.45 214.45 141.6 192.05 165.5 165.4 166.7 160.95 166.9 156.35 166.45 130.15 163.9 108.2 142.65 103.4 138 97.7 138.9 92.35 139.7 87.6 145 79.6 153.95 88.45 162.6 117.95 191.5 159.45 191.3 162.45 191.35 165.4 191.25 196.55 190 222.6 171.75 228.3 167.7 231.55 161.45 239.5 146 224.1 140.75 Z"/>
</g>
</defs>

<g transform="matrix( 1, 0, 0, 1, 0,0) ">
<use xlink:href="#Layer0_0_FILL"/>
</g>
</svg>
