
<svg xmlns="http://www.w3.org/2000/svg" version="1.1" xmlns:xlink="http://www.w3.org/1999/xlink" preserveAspectRatio="none" x="0px" y="0px" width="320px" height="320px" viewBox="0 0 320 320">
<defs/>

<g id="Layer_1">
<g transform="matrix( 1.464691162109375, 0, 0, 1.4052276611328125, 2443.75,-92.15) ">
<g>
<g>
<path fill="#58F4F5" stroke="none" d="
M -1603.85 169.6
Q -1607.05 168.8 -1611.7 171.75 -1614.9 173.65 -1617.25 175.95 -1620.7 179.3 -1627.7 185.95 -1633.7 191.8 -1637.85 196.25 -1641.9 200.65 -1647.6 210.05 -1649.25 212.8 -1648.55 215.3 -1647.85 217.85 -1645 219.4 -1640.2 222 -1636.45 216.8 -1629.75 207.45 -1626.85 204 -1621.5 197.55 -1618.6 194.75 -1613.55 189.9 -1607.95 187.1 -1606.25 189.35 -1605.5 190.4 -1604.1 192.25 -1603.35 193.55 -1602.6 194.9 -1598.9 201.95 -1596.2 207.1 -1594.15 210.1 -1590.1 215.95 -1585.9 215.9 -1581.8 215.8 -1577.75 209.95 -1577.25 209.2 -1576.2 207.35 -1575.3 205.65 -1574.65 204.8 -1569.5 198.3 -1567.7 196.4 -1563.5 192 -1558.95 189.9 -1554.95 191.5 -1552 195.75 -1549 200.9 -1547.4 203.35 -1543.2 209.6 -1539.35 210.2 -1535.6 210.75 -1529.4 206.35 -1525.6 203.65 -1519.75 200.3 -1513.1 196.6 -1509.8 194.65 -1506.45 192.7 -1503.8 193.1 -1500.95 193.55 -1498.5 196.7 -1496.9 198.8 -1494.45 201.1 -1493.15 202.35 -1489.95 205.05 -1488.05 206.75 -1485.9 206.75 -1483.8 206.75 -1481.8 205.1 -1479.75 203.4 -1479.65 201.2 -1479.55 199.1 -1481.2 197.15 -1489.65 187.05 -1495.9 180.95 -1499.1 177.85 -1502.85 177.65 -1506.5 177.45 -1510.45 180 -1517.25 184.45 -1522.5 187.1 -1529.35 190.55 -1531.7 191.45 -1535.25 192.75 -1537.35 192.05 -1539.45 191.35 -1541.6 188.15 -1543.1 186 -1546.85 179.05 -1550.1 173.1 -1553.85 172.15 -1557.7 171.2 -1562.85 175.3 -1566.45 178.1 -1571.5 182.75 -1579.55 190.15 -1579.95 190.5 -1580.7 191.15 -1586.4 195.75 -1586.4 195.7 -1588.8 192.4 -1590.05 190.7 -1590.65 189.55 -1591.6 187.75 -1594.2 182.35 -1596.35 177.85 -1597.85 175.25 -1600.6 170.4 -1603.85 169.6 Z"/>
</g>
</g>
</g>
</g>
</svg>
