
<svg xmlns="http://www.w3.org/2000/svg" version="1.1" xmlns:xlink="http://www.w3.org/1999/xlink" preserveAspectRatio="none" x="0px" y="0px" width="320px" height="320px" viewBox="0 0 320 320">
<defs/>

<g id="Layer_1">
<g transform="matrix( 1.93768310546875, 0, 0, 1.8590087890625, 2226.95,-1079.4) ">
<g>
<g>
<path fill="#58F4F5" stroke="none" d="
M -1047.95 688.05
Q -1046.55 690.1 -1043.9 692.3 -1043.2 692.9 -1039.15 696 -1036.65 697.95 -1034.15 697.85 -1031.55 697.75 -1029.35 695.4 -1027.4 693.3 -1027.55 690.8 -1027.7 688.55 -1029.45 686.3 -1036.75 676.8 -1044.85 671.5 -1053.75 665.65 -1063.05 665.15 -1077.2 665.1 -1087.9 671.45 -1096.85 676.75 -1104.8 687.55 -1105.75 688.8 -1105.85 691.2 -1105.95 693.65 -1105.1 694.55 -1103.85 695.8 -1101.55 696.5 -1099.4 697.15 -1097.3 697.05 -1096 697 -1094.3 695.85 -1093.4 695.25 -1091.5 693.55 -1089.9 692.2 -1085.3 687.1 -1078.1 679.35 -1065.5 679.85 -1053.15 680.3 -1047.95 688.05 Z"/>
</g>
</g>
</g>
</g>
</svg>
