{
    "asset" : {
        "generator" : "Khronos glTF Blender I/O v1.6.16",
        "version" : "2.0"
    },
    "scene" : 0,
    "scenes" : [
        {
            "name" : "Scene",
            "nodes" : [
                6
            ]
        }
    ],
    "nodes" : [
        {
            "mesh" : 0,
            "name" : "led0"
        },
        {
            "mesh" : 1,
            "name" : "led1"
        },
        {
            "mesh" : 2,
            "name" : "led2"
        },
        {
            "children" : [
                0,
                1,
                2
            ],
            "name" : "screen"
        },
        {
            "children" : [
                3
            ],
            "name" : "building_geo"
        },
        {
            "children" : [
                4
            ],
            "name" : "IOC_sceneglb"
        },
        {
            "children" : [
                5
            ],
            "name" : "building2"
        }
    ],
    "meshes" : [
        {
            "name" : "Mesh_0.001",
            "primitives" : [
                {
                    "attributes" : {
                        "POSITION" : 0,
                        "NORMAL" : 1,
                        "TEXCOORD_0" : 2
                    },
                    "indices" : 3
                }
            ]
        },
        {
            "name" : "Mesh_0",
            "primitives" : [
                {
                    "attributes" : {
                        "POSITION" : 4,
                        "NORMAL" : 5,
                        "TEXCOORD_0" : 6
                    },
                    "indices" : 7
                }
            ]
        },
        {
            "name" : "Mesh_0.002",
            "primitives" : [
                {
                    "attributes" : {
                        "POSITION" : 8,
                        "NORMAL" : 9,
                        "TEXCOORD_0" : 10
                    },
                    "indices" : 11
                }
            ]
        }
    ],
    "accessors" : [
        {
            "bufferView" : 0,
            "componentType" : 5126,
            "count" : 18,
            "max" : [
                12.802530288696289,
                7.234183311462402,
                10.235091209411621
            ],
            "min" : [
                5.380563259124756,
                2.540403127670288,
                8.349465370178223
            ],
            "type" : "VEC3"
        },
        {
            "bufferView" : 1,
            "componentType" : 5126,
            "count" : 18,
            "type" : "VEC3"
        },
        {
            "bufferView" : 2,
            "componentType" : 5126,
            "count" : 18,
            "type" : "VEC2"
        },
        {
            "bufferView" : 3,
            "componentType" : 5123,
            "count" : 48,
            "type" : "SCALAR"
        },
        {
            "bufferView" : 4,
            "componentType" : 5126,
            "count" : 16,
            "max" : [
                5.380563259124756,
                7.234183311462402,
                10.502281188964844
            ],
            "min" : [
                -3.196817636489868,
                2.540403127670288,
                10.235091209411621
            ],
            "type" : "VEC3"
        },
        {
            "bufferView" : 5,
            "componentType" : 5126,
            "count" : 16,
            "type" : "VEC3"
        },
        {
            "bufferView" : 6,
            "componentType" : 5126,
            "count" : 16,
            "type" : "VEC2"
        },
        {
            "bufferView" : 7,
            "componentType" : 5123,
            "count" : 42,
            "type" : "SCALAR"
        },
        {
            "bufferView" : 8,
            "componentType" : 5126,
            "count" : 20,
            "max" : [
                -3.19681715965271,
                7.234183311462402,
                10.351332664489746
            ],
            "min" : [
                -11.807390213012695,
                2.540403127670288,
                8.34946060180664
            ],
            "type" : "VEC3"
        },
        {
            "bufferView" : 9,
            "componentType" : 5126,
            "count" : 20,
            "type" : "VEC3"
        },
        {
            "bufferView" : 10,
            "componentType" : 5126,
            "count" : 20,
            "type" : "VEC2"
        },
        {
            "bufferView" : 11,
            "componentType" : 5123,
            "count" : 54,
            "type" : "SCALAR"
        }
    ],
    "bufferViews" : [
        {
            "buffer" : 0,
            "byteLength" : 216,
            "byteOffset" : 0
        },
        {
            "buffer" : 0,
            "byteLength" : 216,
            "byteOffset" : 216
        },
        {
            "buffer" : 0,
            "byteLength" : 144,
            "byteOffset" : 432
        },
        {
            "buffer" : 0,
            "byteLength" : 96,
            "byteOffset" : 576
        },
        {
            "buffer" : 0,
            "byteLength" : 192,
            "byteOffset" : 672
        },
        {
            "buffer" : 0,
            "byteLength" : 192,
            "byteOffset" : 864
        },
        {
            "buffer" : 0,
            "byteLength" : 128,
            "byteOffset" : 1056
        },
        {
            "buffer" : 0,
            "byteLength" : 84,
            "byteOffset" : 1184
        },
        {
            "buffer" : 0,
            "byteLength" : 240,
            "byteOffset" : 1268
        },
        {
            "buffer" : 0,
            "byteLength" : 240,
            "byteOffset" : 1508
        },
        {
            "buffer" : 0,
            "byteLength" : 160,
            "byteOffset" : 1748
        },
        {
            "buffer" : 0,
            "byteLength" : 108,
            "byteOffset" : 1908
        }
    ],
    "buffers" : [
        {
            "byteLength" : 2016,
            "uri" : "data:application/octet-stream;base64,"
        }
    ]
}
