<svg xmlns="http://www.w3.org/2000/svg" xmlns:xlink="http://www.w3.org/1999/xlink" viewBox="0 0 535.32 613.59"><defs><style>.cls-1{opacity:0.88;}.cls-2{stroke:#f6082f;stroke-miterlimit:10;fill:url(#radial-gradient);}</style><radialGradient id="radial-gradient" cx="267.66" cy="306.95" r="287.2" gradientUnits="userSpaceOnUse"><stop offset="0.14" stop-color="#ff3f55" stop-opacity="0.7"/><stop offset="0.67" stop-color="#94000c" stop-opacity="0.9"/></radialGradient></defs><g id="Layer_2" data-name="Layer 2"><g id="Layer_1-2" data-name="Layer 1"><g class="cls-1"><path class="cls-2" d="M.5,212.38V209c.22-.36.6-.7.63-1.07.6-8.65,1.15-17.31,1.73-26q.83-12,1.69-24c.56-8,1.11-16,1.7-24,.54-7.24,1.23-14.48,1.66-21.72.6-10.07,1.37-20.08,4.54-29.75C16.88,69,21.12,55.45,25.66,42,29.58,30.35,33.78,18.8,37.92,7.24c.71-2,1.77-3.86,2.87-6.22A25.77,25.77,0,0,0,43,4.3c5.9,6,11.91,11.92,17.79,18q16.08,16.52,32,33.17C98.4,61.23,104.06,67,109.41,73c5.81,6.51,11.85,12.93,16.8,20.06a143.86,143.86,0,0,1,11.91,21.55c5.45,11.72,10.31,23.72,15.39,35.61,1.3,3,2.46,6.11,3.67,9.13,3.1-1.27,6-2.55,8.89-3.62,9.09-3.33,18-7.32,27.35-9.66a326.1,326.1,0,0,1,35.16-6.35c9.58-1.31,19.29-1.68,28.95-2.31,3.56-.23,7.15-.09,10.73,0,8.34.16,16.71,0,25,.68a229.52,229.52,0,0,1,25.33,3.36c11.13,2.15,22.28,4.49,33.14,7.68,8.47,2.49,16.53,6.4,24.76,9.7,1.09.44,2,1,2.59-.71,1.08-3.21,2.2-6.42,3.47-9.56,2.77-6.86,5.52-13.72,8.51-20.49,2.77-6.25,5.6-12.5,8.83-18.53A224.75,224.75,0,0,1,411.85,89.2c3.16-4.67,7.23-8.75,11.07-12.93q12.1-13.15,24.4-26.11c4.89-5.19,9.89-10.28,14.83-15.42,4.53-4.71,9-9.47,13.58-14.13C481.15,15.1,486.66,9.68,492.1,4.2c1-1,1.82-2.09,2.72-3.14h.57l1,2.83c6.2,17.65,12.52,35.26,18.57,53,3.28,9.61,6.23,19.34,9.12,29.07,3.48,11.68,3.1,23.89,4.5,35.86.84,7.21,1.2,14.47,1.73,21.72.78,10.78,1.56,21.57,2.26,32.36.46,7.17.71,14.36,1.17,21.54.24,3.71.84,7.39,1,11.1.09,1.6.16,3.7-.73,4.77-5.13,6.16-10.55,12.07-15.87,18.08a32.79,32.79,0,0,0-3.71,4.39q-9.54,15.64-18.88,31.41c-3.52,6-7.09,11.84-13,15.76-3.59,2.38-7.32,4.53-11,6.78,2,2.76,4.29,5.28,5.9,8.16,2.92,5.23,6.09,10.45,8,16.07,3.6,10.39,4.23,21.42,5.14,32.3.62,7.29.58,14.64.61,22,0,5.33-.56,10.67-.46,16,.16,8.74-3.79,15.91-8.15,23-1.65,2.68-3.41,5.29-4.88,8.06-1.36,2.56-3.73,4.26-5.08,6.89a52.77,52.77,0,0,1-6.29,9.13c-7.46,9.15-15.14,18.12-22.62,27.26A96.46,96.46,0,0,1,424,477c-10.76,7.42-22,14.15-33,21.2-2.92,1.87-5.76,3.85-8.93,6,.75.28.94.43,1.09.4,1.08-.23,2.16-.48,3.23-.75,15.25-3.82,30.58-6.65,46.46-5.5a86.27,86.27,0,0,1,20.64,4,15.85,15.85,0,0,1,4.49,2.53,2.27,2.27,0,0,1,.35,2.19,3.37,3.37,0,0,1-2.27,1.18,5.1,5.1,0,0,1-2.34-.75,53.51,53.51,0,0,0-20.14-4.63,160.46,160.46,0,0,0-26,1.14,164.14,164.14,0,0,0-36.95,9.44c-4.46,1.72-7.21,5.47-9.65,9.47,3.42-.37,6.61-1.19,9.85-1.7,7.05-1.1,14.09-2.47,21.18-2.94a89.3,89.3,0,0,1,24.82,1.56,58.38,58.38,0,0,1,18.73,7.39c1.4.87,2.21,2.17,1,3.71a2.32,2.32,0,0,1-3.59.51c-7.75-5.34-16.6-7.71-25.79-8.32-14.88-1-29.54.84-44,4.4-3.8.94-6,2.73-6.63,6.56-.15,1-.38,2-.61,3.15l2.58.13c7.47.38,14.94.65,22.39,1.16a71.54,71.54,0,0,1,25.49,6.14,136.75,136.75,0,0,1,15.12,8.68,4,4,0,0,1,1,3.7c-.68,1.65-2.22,1.26-3.45.07a8.48,8.48,0,0,0-1.59-1.1c-3.7-2.16-7.28-4.62-11.17-6.38a68.18,68.18,0,0,0-24.58-6.25c-8.49-.46-17-.79-25.49-1.06a2.57,2.57,0,0,0-2,1.37c-1.1,3.81-2,7.69-3,11.53a54.59,54.59,0,0,1-9.08,19.19c-2.89,3.87-5.45,7.69-5.76,13.11-.49,8.37-3.7,16.18-8.18,23.34-.32.51-1.18.69-2,1.12,0-2.52-.14-4.59,0-6.63.43-5.56,1-11.11,1.43-16.67a2.91,2.91,0,0,0-1.09-2.27,24.25,24.25,0,0,1-8.48-9.08c-1.56-2.75-3.35-5.36-5-8-2.17,3-4,5.48-5.82,8-2.1,2.91-4.06,5.94-6.3,8.74a6.53,6.53,0,0,1-6.78,2.36c-2.91-.72-4.67-2.87-5.43-5.83a35.92,35.92,0,0,0-1.63-5,13.68,13.68,0,0,0-1.74-2.5c-1.67,4.18-2.81,8.22-4.83,11.75-2.27,4-6.58,5.36-10.91,5.62-12,.72-17.58-6.09-19.21-17.49a18,18,0,0,0-2.58,4.19c-.82,2-1.29,4.06-2.24,5.94-1.47,2.92-3.76,3.54-6.91,3.09-3.41-.49-5.23-2.84-6.93-5.21-3.13-4.37-5.95-9-9.2-13.92-1.47,2.39-2.67,4.57-4.1,6.58-2.19,3.07-4.08,6.61-7,8.84s-4.22,4.37-3.75,7.82c.34,2.47.74,5,1,7.44.37,4.11.61,8.24.9,12.36l-1.3.78c-.43-.79-.88-1.57-1.29-2.37-1.07-2.15-2.26-4.25-3.15-6.47-2.43-6-5-12-4.91-18.65a8.74,8.74,0,0,0-1.81-5.64c-4.66-6.42-9.55-12.74-11.59-20.65-1.19-4.64-2.36-9.3-3.67-13.91-.37-1.29-.38-3-2.63-3-11.3-.07-22.59-.07-33.74,2.3-10.61,2.25-20.67,5.66-29.06,13a3.27,3.27,0,0,1-3.13-.15c-.5-.37-.2-2,0-3,.11-.52.79-.94,1.27-1.34,8.22-7,18.11-10.37,28.36-12.69a134.87,134.87,0,0,1,33.91-2.91c.89,0,1.79-.09,2.7-.14-.87-6.89-1.6-7.73-7-9.28a132.23,132.23,0,0,0-40-4.94c-10.78.28-21,2.5-30.06,8.5-1.47,1-2.45.63-3.33-.6s-1-2.53.71-3.36c2.29-1.14,4.6-2.25,6.86-3.47,7.59-4.11,15.92-5.41,24.34-5.82a141.19,141.19,0,0,1,17.68.53c5.07.39,10.11,1.22,15.14,2.05,3.43.56,6.82,1.44,10.22,2.18l.37-.73c-2.24-3.4-4.82-7-8.51-8.42a194.07,194.07,0,0,0-24.13-7.11c-7.19-1.65-14.58-2.5-21.91-3.49a68.63,68.63,0,0,0-24,.57c-5.2,1.14-10.27,2.85-15.41,4.29-1.3.36-2.4.55-3.28-1.08-1-1.8.29-2.52,1.25-3.2a13.52,13.52,0,0,1,3.56-1.48,85.79,85.79,0,0,1,33.73-4.1,171.63,171.63,0,0,1,29.34,4.59c2.68.67,5.41,1.17,8.12,1.75a5.14,5.14,0,0,0-1.84-1.89c-11.59-7.39-23.15-14.81-34.78-22.14-12.72-8-22.68-19-32.37-30.26C80.94,446.42,78.12,442.1,75,438c-4.22-5.48-8.82-10.69-12.71-16.4-4.68-6.86-8.79-14.1-13.12-21.2-4.18-6.84-4.65-14.59-5-22.26s-.35-15.26,0-22.87,1.26-15.38,2.21-23c.66-5.31,1.69-10.59,2.76-15.83,1.54-7.51,5.84-13.74,9.79-20.1,1.45-2.33,3.32-4.4,5-6.59-3.26-2-6.42-3.73-9.34-5.8-2.74-1.94-5.73-3.87-7.71-6.48-3.55-4.69-6.47-9.86-9.59-14.88-2.68-4.32-5.3-8.69-7.89-13.07C25,242,21.07,234.3,14.59,228.13,9.5,223.29,5.17,217.66.5,212.38ZM458.78,384.81c-.61-8.06-1.1-15.39-1.73-22.72-.26-2.95-.38-6-1.33-8.76-3.15-9.15-8.18-17.35-13.82-25.15-3.84-5.31-8.09-10.33-12-15.58a44.36,44.36,0,0,0-15.68-13.28c-6.16-3.12-12.68-4.73-19.52-5.87-7.82-1.31-13.56,1.48-18.16,7a225.36,225.36,0,0,0-16,21.21c-6.89,10.62-13.18,21.59-22.88,30.08-2.42,2.13-4,5.17-6.48,7.27A74.34,74.34,0,0,0,317.22,376c-2.43,3.85-2.45,8.2-2.87,12.58a58.65,58.65,0,0,0,.79,19.16,6.57,6.57,0,0,0,1.8,3.36c5.87,5.11,11.8,10.18,18.7,13.91,3.57,1.93,7,4.3,10.84,5.48,8.13,2.52,16.61,1.88,24.93,1.14,7.26-.64,14.41-2.47,21.67-3.17,9.18-.88,17.35-4.48,25.2-8.76a259.59,259.59,0,0,0,32.67-21C455.91,394.9,459.55,390.76,458.78,384.81ZM176.42,432.33l.05-.7c6.24.43,12.43,0,17.81-3.37,6.95-4.37,13.65-9.14,20.38-13.84,1.66-1.16,3.65-2.45,4.4-4.17a26.48,26.48,0,0,0,2.32-9.22c.24-5-.48-10.1-.38-15.14.09-4.74-1.71-8.7-4.22-12.42-7.79-11.51-18.3-20.59-27.63-30.72a47.68,47.68,0,0,1-4.93-6.23c-5-7.68-9.57-15.63-14.82-23.11a132.37,132.37,0,0,0-12.53-15c-2.19-2.32-4.67-5-8.44-4.81-4.32.16-8.74-.16-12.92.68-9.37,1.9-18.22,5.45-24.82,12.64a201.91,201.91,0,0,0-24.62,32.91c-5.19,8.71-8.34,17.88-7.83,28.25.2,4.1-1.1,8.26-1.42,12.41-.43,5.4-.63,11,3.94,15A92,92,0,0,0,92.09,404c9.16,5.82,18.38,11.6,27.83,16.93a69.77,69.77,0,0,0,14.33,5.81c4.13,1.23,8.53,1.61,12.84,2.15C156.85,430.1,166.64,431.19,176.42,432.33Zm91.92,115.35c.69-1.06,1.29-2,2-2.93.39-.53.95-.93,1.34-1.45a81.78,81.78,0,0,0,13.67-27.71A93.15,93.15,0,0,0,288,498.48a7.51,7.51,0,0,0-4.85-7.94c-10.3-4.3-20.54-4.45-30.74.12A8.05,8.05,0,0,0,249,493.9c-2.36,4.12-1.37,8.61-.8,13,1,7.59,3.81,14.62,7,21.51S262,541.8,268.34,547.68Z"/></g></g></g></svg>