{"asset":{"version":"2.0","generator":"babylon.js glTF exporter for 3dsmax 2022 v20210802.1"},"scene":0,"scenes":[{"nodes":[0,10,33,56]}],"nodes":[{"children":[1],"name":"main_ctrl"},{"children":[2,4,6,8],"name":"char_ctrl"},{"children":[3],"name":"happyEyemouth_1"},{"name":"happyEyemouth_1 (1)"},{"children":[5],"name":"happyEye_2"},{"name":"happyEye_2 (1)"},{"children":[7],"name":"happyEye_3"},{"name":"happyEye_3 (1)"},{"children":[9],"name":"happyMouth_1"},{"name":"happyMouth_1 (1)"},{"children":[11],"name":"r_hand_ctrl"},{"children":[12,13,14,15,16,17,18,23,28],"name":"TMrobot_R_hand"},{"name":"arm_2"},{"name":"arm_5"},{"name":"arm_10"},{"name":"button"},{"name":"forearm"},{"name":"arm_1"},{"children":[19,22],"name":"TMrobot_R_little1"},{"children":[20,21],"name":"TMrobot_R_little2"},{"name":"r_little_low"},{"name":"r_little_mid"},{"name":"r_little_up"},{"children":[24,27],"name":"TMrobot_R_index1"},{"children":[25,26],"name":"TMrobot_R_index2"},{"name":"r_index_low"},{"name":"r_index_mid"},{"name":"r_index_up"},{"children":[29,32],"name":"TMrobot_R_thumb1"},{"children":[30,31],"name":"TMrobot_R_thumb2"},{"name":"r_thumb_low"},{"name":"r_thumb_mid"},{"name":"r_thumb"},{"children":[34],"name":"l_hand_ctrl"},{"children":[35,36,37,38,39,40,41,46,51],"name":"TMrobot_L_hand"},{"name":"arm_1 (1)"},{"name":"arm_2 (1)"},{"name":"arm_5 (1)"},{"name":"arm_9"},{"name":"button (1)"},{"name":"forearm (1)"},{"children":[42,45],"name":"TMrobot_L_index1"},{"children":[43,44],"name":"TMrobot_L_index2"},{"name":"l_index_low"},{"name":"l_index_mid"},{"name":"l_index_up"},{"children":[47,50],"name":"TMrobot_L_little1"},{"children":[48,49],"name":"TMrobot_L_little2"},{"name":"l_little_low"},{"name":"l_little_mid"},{"name":"l_little_up"},{"children":[52,55],"name":"TMrobot_L_thumb1"},{"children":[53,54],"name":"TMrobot_L_thumb2"},{"name":"thumb_low"},{"name":"thumb_mid"},{"name":"thumb_up"},{"name":"hat_ctrl"}],"accessors":[{"bufferView":0,"componentType":5126,"count":52,"max":[136.6],"min":[0.0],"type":"SCALAR","name":"accessorAnimationInput"},{"bufferView":1,"componentType":5126,"count":52,"type":"VEC3","name":"accessorAnimationPositions"},{"bufferView":0,"byteOffset":208,"componentType":5126,"count":52,"max":[136.6],"min":[0.0],"type":"SCALAR","name":"accessorAnimationInput"},{"bufferView":2,"componentType":5126,"count":52,"type":"VEC4","name":"accessorAnimationRotations"},{"bufferView":0,"byteOffset":416,"componentType":5126,"count":6,"max":[136.6],"min":[0.0],"type":"SCALAR","name":"accessorAnimationInput"},{"bufferView":1,"byteOffset":624,"componentType":5126,"count":6,"type":"VEC3","name":"accessorAnimationPositions"},{"bufferView":0,"byteOffset":440,"componentType":5126,"count":6,"max":[136.6],"min":[0.0],"type":"SCALAR","name":"accessorAnimationInput"},{"bufferView":1,"byteOffset":696,"componentType":5126,"count":6,"type":"VEC3","name":"accessorAnimationPositions"},{"bufferView":0,"byteOffset":464,"componentType":5126,"count":52,"max":[136.6],"min":[0.0],"type":"SCALAR","name":"accessorAnimationInput"},{"bufferView":1,"byteOffset":768,"componentType":5126,"count":52,"type":"VEC3","name":"accessorAnimationPositions"},{"bufferView":0,"byteOffset":672,"componentType":5126,"count":52,"max":[136.6],"min":[0.0],"type":"SCALAR","name":"accessorAnimationInput"},{"bufferView":2,"byteOffset":832,"componentType":5126,"count":52,"type":"VEC4","name":"accessorAnimationRotations"},{"bufferView":0,"byteOffset":880,"componentType":5126,"count":52,"max":[136.6],"min":[0.0],"type":"SCALAR","name":"accessorAnimationInput"},{"bufferView":2,"byteOffset":1664,"componentType":5126,"count":52,"type":"VEC4","name":"accessorAnimationRotations"},{"bufferView":0,"byteOffset":1088,"componentType":5126,"count":34,"max":[136.6],"min":[0.0],"type":"SCALAR","name":"accessorAnimationInput"},{"bufferView":1,"byteOffset":1392,"componentType":5126,"count":34,"type":"VEC3","name":"accessorAnimationScales"},{"bufferView":0,"byteOffset":1224,"componentType":5126,"count":52,"max":[136.6],"min":[0.0],"type":"SCALAR","name":"accessorAnimationInput"},{"bufferView":2,"byteOffset":2496,"componentType":5126,"count":52,"type":"VEC4","name":"accessorAnimationRotations"},{"bufferView":0,"byteOffset":1432,"componentType":5126,"count":52,"max":[136.6],"min":[0.0],"type":"SCALAR","name":"accessorAnimationInput"},{"bufferView":2,"byteOffset":3328,"componentType":5126,"count":52,"type":"VEC4","name":"accessorAnimationRotations"},{"bufferView":0,"byteOffset":1640,"componentType":5126,"count":49,"max":[136.6],"min":[0.0],"type":"SCALAR","name":"accessorAnimationInput"},{"bufferView":1,"byteOffset":1800,"componentType":5126,"count":49,"type":"VEC3","name":"accessorAnimationScales"},{"bufferView":0,"byteOffset":1836,"componentType":5126,"count":52,"max":[136.6],"min":[0.0],"type":"SCALAR","name":"accessorAnimationInput"},{"bufferView":2,"byteOffset":4160,"componentType":5126,"count":52,"type":"VEC4","name":"accessorAnimationRotations"},{"bufferView":0,"byteOffset":2044,"componentType":5126,"count":52,"max":[136.6],"min":[0.0],"type":"SCALAR","name":"accessorAnimationInput"},{"bufferView":2,"byteOffset":4992,"componentType":5126,"count":52,"type":"VEC4","name":"accessorAnimationRotations"},{"bufferView":0,"byteOffset":2252,"componentType":5126,"count":45,"max":[136.6],"min":[0.0],"type":"SCALAR","name":"accessorAnimationInput"},{"bufferView":1,"byteOffset":2388,"componentType":5126,"count":45,"type":"VEC3","name":"accessorAnimationScales"},{"bufferView":0,"byteOffset":2432,"componentType":5126,"count":52,"max":[136.6],"min":[0.0],"type":"SCALAR","name":"accessorAnimationInput"},{"bufferView":2,"byteOffset":5824,"componentType":5126,"count":52,"type":"VEC4","name":"accessorAnimationRotations"},{"bufferView":0,"byteOffset":2640,"componentType":5126,"count":52,"max":[136.6],"min":[0.0],"type":"SCALAR","name":"accessorAnimationInput"},{"bufferView":1,"byteOffset":2928,"componentType":5126,"count":52,"type":"VEC3","name":"accessorAnimationPositions"},{"bufferView":0,"byteOffset":2848,"componentType":5126,"count":52,"max":[136.6],"min":[0.0],"type":"SCALAR","name":"accessorAnimationInput"},{"bufferView":2,"byteOffset":6656,"componentType":5126,"count":52,"type":"VEC4","name":"accessorAnimationRotations"},{"bufferView":0,"byteOffset":3056,"componentType":5126,"count":52,"max":[136.6],"min":[0.0],"type":"SCALAR","name":"accessorAnimationInput"},{"bufferView":2,"byteOffset":7488,"componentType":5126,"count":52,"type":"VEC4","name":"accessorAnimationRotations"},{"bufferView":0,"byteOffset":3264,"componentType":5126,"count":50,"max":[136.6],"min":[0.0],"type":"SCALAR","name":"accessorAnimationInput"},{"bufferView":1,"byteOffset":3552,"componentType":5126,"count":50,"type":"VEC3","name":"accessorAnimationScales"},{"bufferView":0,"byteOffset":3464,"componentType":5126,"count":52,"max":[136.6],"min":[0.0],"type":"SCALAR","name":"accessorAnimationInput"},{"bufferView":2,"byteOffset":8320,"componentType":5126,"count":52,"type":"VEC4","name":"accessorAnimationRotations"},{"bufferView":0,"byteOffset":3672,"componentType":5126,"count":52,"max":[136.6],"min":[0.0],"type":"SCALAR","name":"accessorAnimationInput"},{"bufferView":2,"byteOffset":9152,"componentType":5126,"count":52,"type":"VEC4","name":"accessorAnimationRotations"},{"bufferView":0,"byteOffset":3880,"componentType":5126,"count":38,"max":[136.6],"min":[0.0],"type":"SCALAR","name":"accessorAnimationInput"},{"bufferView":1,"byteOffset":4152,"componentType":5126,"count":38,"type":"VEC3","name":"accessorAnimationScales"},{"bufferView":0,"byteOffset":4032,"componentType":5126,"count":52,"max":[136.6],"min":[0.0],"type":"SCALAR","name":"accessorAnimationInput"},{"bufferView":2,"byteOffset":9984,"componentType":5126,"count":52,"type":"VEC4","name":"accessorAnimationRotations"},{"bufferView":0,"byteOffset":4240,"componentType":5126,"count":52,"max":[136.6],"min":[0.0],"type":"SCALAR","name":"accessorAnimationInput"},{"bufferView":2,"byteOffset":10816,"componentType":5126,"count":52,"type":"VEC4","name":"accessorAnimationRotations"},{"bufferView":0,"byteOffset":4448,"componentType":5126,"count":52,"max":[136.6],"min":[0.0],"type":"SCALAR","name":"accessorAnimationInput"},{"bufferView":2,"byteOffset":11648,"componentType":5126,"count":52,"type":"VEC4","name":"accessorAnimationRotations"},{"bufferView":0,"byteOffset":4656,"componentType":5126,"count":52,"max":[136.6],"min":[0.0],"type":"SCALAR","name":"accessorAnimationInput"},{"bufferView":1,"byteOffset":4608,"componentType":5126,"count":52,"type":"VEC3","name":"accessorAnimationPositions"},{"bufferView":0,"byteOffset":4864,"componentType":5126,"count":52,"max":[136.6],"min":[0.0],"type":"SCALAR","name":"accessorAnimationInput"},{"bufferView":2,"byteOffset":12480,"componentType":5126,"count":52,"type":"VEC4","name":"accessorAnimationRotations"}],"bufferViews":[{"buffer":0,"byteLength":5072,"name":"bufferViewAnimationFloatScalar"},{"buffer":0,"byteOffset":5072,"byteLength":5232,"name":"bufferViewAnimationFloatVec3"},{"buffer":0,"byteOffset":10304,"byteLength":13312,"name":"bufferViewAnimationFloatVec4"}],"buffers":[{"uri":"idle.bin","byteLength":23616}],"animations":[{"channels":[{"sampler":0,"target":{"node":1,"path":"translation"}},{"sampler":1,"target":{"node":1,"path":"rotation"}},{"sampler":2,"target":{"node":2,"path":"translation"}},{"sampler":3,"target":{"node":8,"path":"translation"}},{"sampler":4,"target":{"node":10,"path":"translation"}},{"sampler":5,"target":{"node":10,"path":"rotation"}},{"sampler":6,"target":{"node":18,"path":"rotation"}},{"sampler":7,"target":{"node":18,"path":"scale"}},{"sampler":8,"target":{"node":19,"path":"rotation"}},{"sampler":9,"target":{"node":23,"path":"rotation"}},{"sampler":10,"target":{"node":23,"path":"scale"}},{"sampler":11,"target":{"node":24,"path":"rotation"}},{"sampler":12,"target":{"node":28,"path":"rotation"}},{"sampler":13,"target":{"node":28,"path":"scale"}},{"sampler":14,"target":{"node":29,"path":"rotation"}},{"sampler":15,"target":{"node":33,"path":"translation"}},{"sampler":16,"target":{"node":33,"path":"rotation"}},{"sampler":17,"target":{"node":41,"path":"rotation"}},{"sampler":18,"target":{"node":41,"path":"scale"}},{"sampler":19,"target":{"node":42,"path":"rotation"}},{"sampler":20,"target":{"node":46,"path":"rotation"}},{"sampler":21,"target":{"node":46,"path":"scale"}},{"sampler":22,"target":{"node":47,"path":"rotation"}},{"sampler":23,"target":{"node":51,"path":"rotation"}},{"sampler":24,"target":{"node":52,"path":"rotation"}},{"sampler":25,"target":{"node":56,"path":"translation"}},{"sampler":26,"target":{"node":56,"path":"rotation"}}],"samplers":[{"input":0,"output":1},{"input":2,"output":3},{"input":4,"output":5},{"input":6,"output":7},{"input":8,"output":9},{"input":10,"output":11},{"input":12,"output":13},{"input":14,"output":15},{"input":16,"output":17},{"input":18,"output":19},{"input":20,"output":21},{"input":22,"output":23},{"input":24,"output":25},{"input":26,"output":27},{"input":28,"output":29},{"input":30,"output":31},{"input":32,"output":33},{"input":34,"output":35},{"input":36,"output":37},{"input":38,"output":39},{"input":40,"output":41},{"input":42,"output":43},{"input":44,"output":45},{"input":46,"output":47},{"input":48,"output":49},{"input":50,"output":51},{"input":52,"output":53}],"name":"All Animations"}]}