{"asset":{"version":"2.0","generator":"babylon.js glTF exporter for 3dsmax 2022 v20210802.1"},"scene":0,"scenes":[{"nodes":[0,29,52,75]}],"nodes":[{"children":[1],"name":"main_ctrl"},{"children":[2,21,23,25,27],"name":"char_ctrl"},{"children":[3,4,5,6,7,8,9,10,11,12,13,14,15,16,17,19],"name":"TMrobot_body"},{"name":"body_1"},{"name":"body_2"},{"name":"body_3"},{"name":"body_4"},{"name":"body_5"},{"name":"body_7"},{"name":"body_8"},{"name":"body_9"},{"name":"body_11"},{"name":"body_12"},{"name":"body_13"},{"name":"body_14"},{"name":"body_15"},{"name":"body_28"},{"children":[18],"name":"TM_robot_flap1"},{"name":"body_6"},{"children":[20],"name":"TM_robot_flap2"},{"name":"body_10"},{"children":[22],"name":"happyEyemouth_1"},{"name":"happyEyemouth_1 (1)"},{"children":[24],"name":"happyEye_2"},{"name":"happyEye_2 (1)"},{"children":[26],"name":"happyEye_3"},{"name":"happyEye_3 (1)"},{"children":[28],"name":"happyMouth_1"},{"name":"happyMouth_1 (1)"},{"children":[30],"name":"r_hand_ctrl"},{"children":[31,32,33,34,35,36,37,42,47],"name":"TMrobot_R_hand"},{"name":"arm_2"},{"name":"arm_5"},{"name":"arm_10"},{"name":"button"},{"name":"forearm"},{"name":"arm_1"},{"children":[38,41],"name":"TMrobot_R_little1"},{"children":[39,40],"name":"TMrobot_R_little2"},{"name":"r_little_low"},{"name":"r_little_mid"},{"name":"r_little_up"},{"children":[43,46],"name":"TMrobot_R_index1"},{"children":[44,45],"name":"TMrobot_R_index2"},{"name":"r_index_low"},{"name":"r_index_mid"},{"name":"r_index_up"},{"children":[48,51],"name":"TMrobot_R_thumb1"},{"children":[49,50],"name":"TMrobot_R_thumb2"},{"name":"r_thumb_low"},{"name":"r_thumb_mid"},{"name":"r_thumb"},{"children":[53],"name":"l_hand_ctrl"},{"children":[54,55,56,57,58,59,60,65,70],"name":"TMrobot_L_hand"},{"name":"arm_1 (1)"},{"name":"arm_2 (1)"},{"name":"arm_5 (1)"},{"name":"arm_9"},{"name":"button (1)"},{"name":"forearm (1)"},{"children":[61,64],"name":"TMrobot_L_index1"},{"children":[62,63],"name":"TMrobot_L_index2"},{"name":"l_index_low"},{"name":"l_index_mid"},{"name":"l_index_up"},{"children":[66,69],"name":"TMrobot_L_little1"},{"children":[67,68],"name":"TMrobot_L_little2"},{"name":"l_little_low"},{"name":"l_little_mid"},{"name":"l_little_up"},{"children":[71,74],"name":"TMrobot_L_thumb1"},{"children":[72,73],"name":"TMrobot_L_thumb2"},{"name":"thumb_low"},{"name":"thumb_mid"},{"name":"thumb_up"},{"children":[76],"name":"hat_ctrl"},{"children":[77,78,79],"name":"TMrobot_hat"},{"name":"mid"},{"name":"low"},{"name":"top"}],"accessors":[{"bufferView":0,"componentType":5126,"count":101,"max":[3.33333325],"min":[0.0],"type":"SCALAR","name":"accessorAnimationInput"},{"bufferView":1,"componentType":5126,"count":101,"type":"VEC3","name":"accessorAnimationPositions"},{"bufferView":0,"byteOffset":404,"componentType":5126,"count":101,"max":[3.33333325],"min":[0.0],"type":"SCALAR","name":"accessorAnimationInput"},{"bufferView":2,"componentType":5126,"count":101,"type":"VEC4","name":"accessorAnimationRotations"},{"bufferView":0,"byteOffset":808,"componentType":5126,"count":12,"max":[3.33333325],"min":[0.0],"type":"SCALAR","name":"accessorAnimationInput"},{"bufferView":2,"byteOffset":1616,"componentType":5126,"count":12,"type":"VEC4","name":"accessorAnimationRotations"},{"bufferView":0,"byteOffset":856,"componentType":5126,"count":68,"max":[3.33333325],"min":[0.0],"type":"SCALAR","name":"accessorAnimationInput"},{"bufferView":1,"byteOffset":1212,"componentType":5126,"count":68,"type":"VEC3","name":"accessorAnimationScales"},{"bufferView":0,"byteOffset":1128,"componentType":5126,"count":12,"max":[3.33333325],"min":[0.0],"type":"SCALAR","name":"accessorAnimationInput"},{"bufferView":2,"byteOffset":1808,"componentType":5126,"count":12,"type":"VEC4","name":"accessorAnimationRotations"},{"bufferView":0,"byteOffset":1176,"componentType":5126,"count":79,"max":[3.33333325],"min":[0.0],"type":"SCALAR","name":"accessorAnimationInput"},{"bufferView":1,"byteOffset":2028,"componentType":5126,"count":79,"type":"VEC3","name":"accessorAnimationScales"},{"bufferView":0,"byteOffset":1492,"componentType":5126,"count":101,"max":[3.33333325],"min":[0.0],"type":"SCALAR","name":"accessorAnimationInput"},{"bufferView":1,"byteOffset":2976,"componentType":5126,"count":101,"type":"VEC3","name":"accessorAnimationPositions"},{"bufferView":0,"byteOffset":1896,"componentType":5126,"count":101,"max":[3.33333325],"min":[0.0],"type":"SCALAR","name":"accessorAnimationInput"},{"bufferView":2,"byteOffset":2000,"componentType":5126,"count":101,"type":"VEC4","name":"accessorAnimationRotations"},{"bufferView":0,"byteOffset":2300,"componentType":5126,"count":58,"max":[3.33333325],"min":[0.0],"type":"SCALAR","name":"accessorAnimationInput"},{"bufferView":2,"byteOffset":3616,"componentType":5126,"count":58,"type":"VEC4","name":"accessorAnimationRotations"},{"bufferView":0,"byteOffset":2532,"componentType":5126,"count":76,"max":[3.33333325],"min":[0.0],"type":"SCALAR","name":"accessorAnimationInput"},{"bufferView":1,"byteOffset":4188,"componentType":5126,"count":76,"type":"VEC3","name":"accessorAnimationScales"},{"bufferView":0,"byteOffset":2836,"componentType":5126,"count":58,"max":[3.33333325],"min":[0.0],"type":"SCALAR","name":"accessorAnimationInput"},{"bufferView":2,"byteOffset":4544,"componentType":5126,"count":58,"type":"VEC4","name":"accessorAnimationRotations"},{"bufferView":0,"byteOffset":3068,"componentType":5126,"count":58,"max":[3.33333325],"min":[0.0],"type":"SCALAR","name":"accessorAnimationInput"},{"bufferView":2,"byteOffset":5472,"componentType":5126,"count":58,"type":"VEC4","name":"accessorAnimationRotations"},{"bufferView":0,"byteOffset":3300,"componentType":5126,"count":95,"max":[3.33333325],"min":[0.0],"type":"SCALAR","name":"accessorAnimationInput"},{"bufferView":1,"byteOffset":5100,"componentType":5126,"count":95,"type":"VEC3","name":"accessorAnimationScales"},{"bufferView":0,"byteOffset":3680,"componentType":5126,"count":58,"max":[3.33333325],"min":[0.0],"type":"SCALAR","name":"accessorAnimationInput"},{"bufferView":2,"byteOffset":6400,"componentType":5126,"count":58,"type":"VEC4","name":"accessorAnimationRotations"},{"bufferView":0,"byteOffset":3912,"componentType":5126,"count":58,"max":[3.33333325],"min":[0.0],"type":"SCALAR","name":"accessorAnimationInput"},{"bufferView":2,"byteOffset":7328,"componentType":5126,"count":58,"type":"VEC4","name":"accessorAnimationRotations"},{"bufferView":0,"byteOffset":4144,"componentType":5126,"count":96,"max":[3.33333325],"min":[0.0],"type":"SCALAR","name":"accessorAnimationInput"},{"bufferView":1,"byteOffset":6240,"componentType":5126,"count":96,"type":"VEC3","name":"accessorAnimationScales"},{"bufferView":0,"byteOffset":4528,"componentType":5126,"count":58,"max":[3.33333325],"min":[0.0],"type":"SCALAR","name":"accessorAnimationInput"},{"bufferView":2,"byteOffset":8256,"componentType":5126,"count":58,"type":"VEC4","name":"accessorAnimationRotations"},{"bufferView":0,"byteOffset":4760,"componentType":5126,"count":101,"max":[3.33333325],"min":[0.0],"type":"SCALAR","name":"accessorAnimationInput"},{"bufferView":1,"byteOffset":7392,"componentType":5126,"count":101,"type":"VEC3","name":"accessorAnimationPositions"},{"bufferView":0,"byteOffset":5164,"componentType":5126,"count":101,"max":[3.33333325],"min":[0.0],"type":"SCALAR","name":"accessorAnimationInput"},{"bufferView":2,"byteOffset":9184,"componentType":5126,"count":101,"type":"VEC4","name":"accessorAnimationRotations"},{"bufferView":0,"byteOffset":5568,"componentType":5126,"count":58,"max":[3.33333325],"min":[0.0],"type":"SCALAR","name":"accessorAnimationInput"},{"bufferView":2,"byteOffset":10800,"componentType":5126,"count":58,"type":"VEC4","name":"accessorAnimationRotations"},{"bufferView":0,"byteOffset":5800,"componentType":5126,"count":96,"max":[3.33333325],"min":[0.0],"type":"SCALAR","name":"accessorAnimationInput"},{"bufferView":1,"byteOffset":8604,"componentType":5126,"count":96,"type":"VEC3","name":"accessorAnimationScales"},{"bufferView":0,"byteOffset":6184,"componentType":5126,"count":58,"max":[3.33333325],"min":[0.0],"type":"SCALAR","name":"accessorAnimationInput"},{"bufferView":2,"byteOffset":11728,"componentType":5126,"count":58,"type":"VEC4","name":"accessorAnimationRotations"},{"bufferView":0,"byteOffset":6416,"componentType":5126,"count":58,"max":[3.33333325],"min":[0.0],"type":"SCALAR","name":"accessorAnimationInput"},{"bufferView":2,"byteOffset":12656,"componentType":5126,"count":58,"type":"VEC4","name":"accessorAnimationRotations"},{"bufferView":0,"byteOffset":6648,"componentType":5126,"count":72,"max":[3.33333325],"min":[0.0],"type":"SCALAR","name":"accessorAnimationInput"},{"bufferView":1,"byteOffset":9756,"componentType":5126,"count":72,"type":"VEC3","name":"accessorAnimationScales"},{"bufferView":0,"byteOffset":6936,"componentType":5126,"count":58,"max":[3.33333325],"min":[0.0],"type":"SCALAR","name":"accessorAnimationInput"},{"bufferView":2,"byteOffset":13584,"componentType":5126,"count":58,"type":"VEC4","name":"accessorAnimationRotations"},{"bufferView":0,"byteOffset":7168,"componentType":5126,"count":8,"max":[3.33333325],"min":[0.0],"type":"SCALAR","name":"accessorAnimationInput"},{"bufferView":2,"byteOffset":14512,"componentType":5126,"count":8,"type":"VEC4","name":"accessorAnimationRotations"},{"bufferView":0,"byteOffset":7200,"componentType":5126,"count":92,"max":[3.33333325],"min":[0.0],"type":"SCALAR","name":"accessorAnimationInput"},{"bufferView":1,"byteOffset":10620,"componentType":5126,"count":92,"type":"VEC3","name":"accessorAnimationScales"},{"bufferView":0,"byteOffset":7568,"componentType":5126,"count":8,"max":[3.33333325],"min":[0.0],"type":"SCALAR","name":"accessorAnimationInput"},{"bufferView":2,"byteOffset":14640,"componentType":5126,"count":8,"type":"VEC4","name":"accessorAnimationRotations"},{"bufferView":0,"byteOffset":7600,"componentType":5126,"count":101,"max":[3.33333325],"min":[0.0],"type":"SCALAR","name":"accessorAnimationInput"},{"bufferView":1,"byteOffset":11724,"componentType":5126,"count":101,"type":"VEC3","name":"accessorAnimationPositions"},{"bufferView":0,"byteOffset":8004,"componentType":5126,"count":101,"max":[3.33333325],"min":[0.0],"type":"SCALAR","name":"accessorAnimationInput"},{"bufferView":2,"byteOffset":14768,"componentType":5126,"count":101,"type":"VEC4","name":"accessorAnimationRotations"}],"bufferViews":[{"buffer":0,"byteLength":8408,"name":"bufferViewAnimationFloatScalar"},{"buffer":0,"byteOffset":8408,"byteLength":12936,"name":"bufferViewAnimationFloatVec3"},{"buffer":0,"byteOffset":21344,"byteLength":16384,"name":"bufferViewAnimationFloatVec4"}],"buffers":[{"uri":"ioc-agility.bin","byteLength":37728}],"animations":[{"channels":[{"sampler":0,"target":{"node":1,"path":"translation"}},{"sampler":1,"target":{"node":1,"path":"rotation"}},{"sampler":2,"target":{"node":17,"path":"rotation"}},{"sampler":3,"target":{"node":17,"path":"scale"}},{"sampler":4,"target":{"node":19,"path":"rotation"}},{"sampler":5,"target":{"node":19,"path":"scale"}},{"sampler":6,"target":{"node":29,"path":"translation"}},{"sampler":7,"target":{"node":29,"path":"rotation"}},{"sampler":8,"target":{"node":37,"path":"rotation"}},{"sampler":9,"target":{"node":37,"path":"scale"}},{"sampler":10,"target":{"node":38,"path":"rotation"}},{"sampler":11,"target":{"node":42,"path":"rotation"}},{"sampler":12,"target":{"node":42,"path":"scale"}},{"sampler":13,"target":{"node":43,"path":"rotation"}},{"sampler":14,"target":{"node":47,"path":"rotation"}},{"sampler":15,"target":{"node":47,"path":"scale"}},{"sampler":16,"target":{"node":48,"path":"rotation"}},{"sampler":17,"target":{"node":52,"path":"translation"}},{"sampler":18,"target":{"node":52,"path":"rotation"}},{"sampler":19,"target":{"node":60,"path":"rotation"}},{"sampler":20,"target":{"node":60,"path":"scale"}},{"sampler":21,"target":{"node":61,"path":"rotation"}},{"sampler":22,"target":{"node":65,"path":"rotation"}},{"sampler":23,"target":{"node":65,"path":"scale"}},{"sampler":24,"target":{"node":66,"path":"rotation"}},{"sampler":25,"target":{"node":70,"path":"rotation"}},{"sampler":26,"target":{"node":70,"path":"scale"}},{"sampler":27,"target":{"node":71,"path":"rotation"}},{"sampler":28,"target":{"node":75,"path":"translation"}},{"sampler":29,"target":{"node":75,"path":"rotation"}}],"samplers":[{"input":0,"output":1},{"input":2,"output":3},{"input":4,"output":5},{"input":6,"output":7},{"input":8,"output":9},{"input":10,"output":11},{"input":12,"output":13},{"input":14,"output":15},{"input":16,"output":17},{"input":18,"output":19},{"input":20,"output":21},{"input":22,"output":23},{"input":24,"output":25},{"input":26,"output":27},{"input":28,"output":29},{"input":30,"output":31},{"input":32,"output":33},{"input":34,"output":35},{"input":36,"output":37},{"input":38,"output":39},{"input":40,"output":41},{"input":42,"output":43},{"input":44,"output":45},{"input":46,"output":47},{"input":48,"output":49},{"input":50,"output":51},{"input":52,"output":53},{"input":54,"output":55},{"input":56,"output":57},{"input":58,"output":59}],"name":"All Animations"}]}