{"asset":{"version":"2.0","generator":"babylon.js glTF exporter for 3dsmax 2022 v20210802.1"},"scene":0,"scenes":[{"nodes":[0]}],"nodes":[{"children":[1,31,54,77],"name":"root"},{"children":[2],"name":"main_ctrl"},{"children":[3,21,23,25,27,29],"name":"char_ctrl"},{"children":[4,5,6,7,8,9,10,11,12,13,14,15,16,17,18,19],"name":"TMrobot_body"},{"name":"body_1"},{"name":"body_2"},{"name":"body_3"},{"name":"body_4"},{"name":"body_5"},{"name":"body_7"},{"name":"body_8"},{"name":"body_9"},{"name":"body_10"},{"name":"body_11"},{"name":"body_12"},{"name":"body_13"},{"name":"body_14"},{"name":"body_15"},{"name":"body_28"},{"children":[20],"name":"Bone001"},{"name":"body_6"},{"children":[22],"name":"happyEyemouth_1"},{"name":"happyEyemouth_1 (1)"},{"children":[24],"name":"happyEye_3"},{"name":"happyEye_3 (1)"},{"children":[26],"name":"happyMouth_1"},{"name":"happyMouth_1 (1)"},{"children":[28],"name":"happyMouth_2"},{"name":"happyMouth_2 (1)"},{"children":[30],"name":"sleepEye_3"},{"name":"sleepEye_3 (1)"},{"children":[32],"name":"r_hand_ctrl"},{"children":[33,34,35,36,37,38,39,44,49],"name":"TMrobot_R_hand"},{"name":"arm_2"},{"name":"arm_5"},{"name":"arm_10"},{"name":"button"},{"name":"forearm"},{"name":"arm_1"},{"children":[40,43],"name":"TMrobot_R_little1"},{"children":[41,42],"name":"TMrobot_R_little2"},{"name":"r_little_low"},{"name":"r_little_mid"},{"name":"r_little_up"},{"children":[45,48],"name":"TMrobot_R_index1"},{"children":[46,47],"name":"TMrobot_R_index2"},{"name":"r_index_low"},{"name":"r_index_mid"},{"name":"r_index_up"},{"children":[50,53],"name":"TMrobot_R_thumb1"},{"children":[51,52],"name":"TMrobot_R_thumb2"},{"name":"r_thumb_low"},{"name":"r_thumb_mid"},{"name":"r_thumb"},{"children":[55],"name":"l_hand_ctrl"},{"children":[56,57,58,59,60,61,62,67,72],"name":"TMrobot_L_hand"},{"name":"arm_1 (1)"},{"name":"arm_2 (1)"},{"name":"arm_5 (1)"},{"name":"arm_9"},{"name":"button (1)"},{"name":"forearm (1)"},{"children":[63,66],"name":"TMrobot_L_index1"},{"children":[64,65],"name":"TMrobot_L_index2"},{"name":"l_index_low"},{"name":"l_index_mid"},{"name":"l_index_up"},{"children":[68,71],"name":"TMrobot_L_little1"},{"children":[69,70],"name":"TMrobot_L_little2"},{"name":"l_little_low"},{"name":"l_little_mid"},{"name":"l_little_up"},{"children":[73,76],"name":"TMrobot_L_thumb1"},{"children":[74,75],"name":"TMrobot_L_thumb2"},{"name":"thumb_low"},{"name":"thumb_mid"},{"name":"thumb_up"},{"children":[78],"name":"hat_ctrl"},{"children":[79,80,81],"name":"TMrobot_hat"},{"name":"mid"},{"name":"low"},{"name":"top"}],"accessors":[{"bufferView":0,"componentType":5126,"count":893,"max":[136.6],"min":[0.0],"type":"SCALAR","name":"accessorAnimationInput"},{"bufferView":1,"componentType":5126,"count":893,"type":"VEC3","name":"accessorAnimationPositions"},{"bufferView":0,"byteOffset":3572,"componentType":5126,"count":902,"max":[136.6],"min":[0.0],"type":"SCALAR","name":"accessorAnimationInput"},{"bufferView":2,"componentType":5126,"count":902,"type":"VEC4","name":"accessorAnimationRotations"},{"bufferView":0,"byteOffset":7180,"componentType":5126,"count":614,"max":[136.6],"min":[0.0],"type":"SCALAR","name":"accessorAnimationInput"},{"bufferView":1,"byteOffset":10716,"componentType":5126,"count":614,"type":"VEC3","name":"accessorAnimationScales"},{"bufferView":0,"byteOffset":9636,"componentType":5126,"count":6,"max":[136.6],"min":[0.0],"type":"SCALAR","name":"accessorAnimationInput"},{"bufferView":1,"byteOffset":18084,"componentType":5126,"count":6,"type":"VEC3","name":"accessorAnimationPositions"},{"bufferView":0,"byteOffset":9660,"componentType":5126,"count":6,"max":[136.6],"min":[0.0],"type":"SCALAR","name":"accessorAnimationInput"},{"bufferView":1,"byteOffset":18156,"componentType":5126,"count":6,"type":"VEC3","name":"accessorAnimationPositions"},{"bufferView":0,"byteOffset":9684,"componentType":5126,"count":912,"max":[136.6],"min":[0.0],"type":"SCALAR","name":"accessorAnimationInput"},{"bufferView":1,"byteOffset":18228,"componentType":5126,"count":912,"type":"VEC3","name":"accessorAnimationPositions"},{"bufferView":0,"byteOffset":13332,"componentType":5126,"count":902,"max":[136.6],"min":[0.0],"type":"SCALAR","name":"accessorAnimationInput"},{"bufferView":2,"byteOffset":14432,"componentType":5126,"count":902,"type":"VEC4","name":"accessorAnimationRotations"},{"bufferView":0,"byteOffset":16940,"componentType":5126,"count":127,"max":[136.6],"min":[0.0],"type":"SCALAR","name":"accessorAnimationInput"},{"bufferView":2,"byteOffset":28864,"componentType":5126,"count":127,"type":"VEC4","name":"accessorAnimationRotations"},{"bufferView":0,"byteOffset":17448,"componentType":5126,"count":656,"max":[136.6],"min":[0.0],"type":"SCALAR","name":"accessorAnimationInput"},{"bufferView":1,"byteOffset":29172,"componentType":5126,"count":656,"type":"VEC3","name":"accessorAnimationScales"},{"bufferView":0,"byteOffset":20072,"componentType":5126,"count":125,"max":[136.6],"min":[0.0],"type":"SCALAR","name":"accessorAnimationInput"},{"bufferView":2,"byteOffset":30896,"componentType":5126,"count":125,"type":"VEC4","name":"accessorAnimationRotations"},{"bufferView":0,"byteOffset":20572,"componentType":5126,"count":127,"max":[136.6],"min":[0.0],"type":"SCALAR","name":"accessorAnimationInput"},{"bufferView":2,"byteOffset":32896,"componentType":5126,"count":127,"type":"VEC4","name":"accessorAnimationRotations"},{"bufferView":0,"byteOffset":21080,"componentType":5126,"count":820,"max":[136.6],"min":[0.0],"type":"SCALAR","name":"accessorAnimationInput"},{"bufferView":1,"byteOffset":37044,"componentType":5126,"count":820,"type":"VEC3","name":"accessorAnimationScales"},{"bufferView":0,"byteOffset":24360,"componentType":5126,"count":127,"max":[136.6],"min":[0.0],"type":"SCALAR","name":"accessorAnimationInput"},{"bufferView":2,"byteOffset":34928,"componentType":5126,"count":127,"type":"VEC4","name":"accessorAnimationRotations"},{"bufferView":0,"byteOffset":24868,"componentType":5126,"count":126,"max":[136.6],"min":[0.0],"type":"SCALAR","name":"accessorAnimationInput"},{"bufferView":2,"byteOffset":36960,"componentType":5126,"count":126,"type":"VEC4","name":"accessorAnimationRotations"},{"bufferView":0,"byteOffset":25372,"componentType":5126,"count":822,"max":[136.6],"min":[0.0],"type":"SCALAR","name":"accessorAnimationInput"},{"bufferView":1,"byteOffset":46884,"componentType":5126,"count":822,"type":"VEC3","name":"accessorAnimationScales"},{"bufferView":0,"byteOffset":28660,"componentType":5126,"count":126,"max":[136.6],"min":[0.0],"type":"SCALAR","name":"accessorAnimationInput"},{"bufferView":2,"byteOffset":38976,"componentType":5126,"count":126,"type":"VEC4","name":"accessorAnimationRotations"},{"bufferView":0,"byteOffset":29164,"componentType":5126,"count":910,"max":[136.6],"min":[0.0],"type":"SCALAR","name":"accessorAnimationInput"},{"bufferView":1,"byteOffset":56748,"componentType":5126,"count":910,"type":"VEC3","name":"accessorAnimationPositions"},{"bufferView":0,"byteOffset":32804,"componentType":5126,"count":902,"max":[136.6],"min":[0.0],"type":"SCALAR","name":"accessorAnimationInput"},{"bufferView":2,"byteOffset":40992,"componentType":5126,"count":902,"type":"VEC4","name":"accessorAnimationRotations"},{"bufferView":0,"byteOffset":36412,"componentType":5126,"count":816,"max":[136.6],"min":[0.0],"type":"SCALAR","name":"accessorAnimationInput"},{"bufferView":1,"byteOffset":67668,"componentType":5126,"count":816,"type":"VEC3","name":"accessorAnimationScales"},{"bufferView":0,"byteOffset":39676,"componentType":5126,"count":618,"max":[136.6],"min":[0.0],"type":"SCALAR","name":"accessorAnimationInput"},{"bufferView":1,"byteOffset":77460,"componentType":5126,"count":618,"type":"VEC3","name":"accessorAnimationScales"},{"bufferView":0,"byteOffset":42148,"componentType":5126,"count":824,"max":[136.6],"min":[0.0],"type":"SCALAR","name":"accessorAnimationInput"},{"bufferView":1,"byteOffset":84876,"componentType":5126,"count":824,"type":"VEC3","name":"accessorAnimationScales"},{"bufferView":0,"byteOffset":45444,"componentType":5126,"count":920,"max":[136.6],"min":[0.0],"type":"SCALAR","name":"accessorAnimationInput"},{"bufferView":1,"byteOffset":94764,"componentType":5126,"count":920,"type":"VEC3","name":"accessorAnimationPositions"},{"bufferView":0,"byteOffset":49124,"componentType":5126,"count":902,"max":[136.6],"min":[0.0],"type":"SCALAR","name":"accessorAnimationInput"},{"bufferView":2,"byteOffset":55424,"componentType":5126,"count":902,"type":"VEC4","name":"accessorAnimationRotations"},{"bufferView":0,"byteOffset":52732,"componentType":5126,"count":20,"max":[136.6],"min":[0.0],"type":"SCALAR","name":"accessorAnimationInput"},{"bufferView":2,"byteOffset":69856,"componentType":5126,"count":20,"type":"VEC4","name":"accessorAnimationRotations"}],"bufferViews":[{"buffer":0,"byteLength":52812,"name":"bufferViewAnimationFloatScalar"},{"buffer":0,"byteOffset":52812,"byteLength":105804,"name":"bufferViewAnimationFloatVec3"},{"buffer":0,"byteOffset":158616,"byteLength":70176,"name":"bufferViewAnimationFloatVec4"}],"buffers":[{"uri":"long.bin","byteLength":228792}],"animations":[{"channels":[{"sampler":0,"target":{"node":2,"path":"translation"}},{"sampler":1,"target":{"node":2,"path":"rotation"}},{"sampler":2,"target":{"node":19,"path":"scale"}},{"sampler":3,"target":{"node":27,"path":"translation"}},{"sampler":4,"target":{"node":29,"path":"translation"}},{"sampler":5,"target":{"node":31,"path":"translation"}},{"sampler":6,"target":{"node":31,"path":"rotation"}},{"sampler":7,"target":{"node":39,"path":"rotation"}},{"sampler":8,"target":{"node":39,"path":"scale"}},{"sampler":9,"target":{"node":40,"path":"rotation"}},{"sampler":10,"target":{"node":44,"path":"rotation"}},{"sampler":11,"target":{"node":44,"path":"scale"}},{"sampler":12,"target":{"node":45,"path":"rotation"}},{"sampler":13,"target":{"node":49,"path":"rotation"}},{"sampler":14,"target":{"node":49,"path":"scale"}},{"sampler":15,"target":{"node":50,"path":"rotation"}},{"sampler":16,"target":{"node":54,"path":"translation"}},{"sampler":17,"target":{"node":54,"path":"rotation"}},{"sampler":18,"target":{"node":62,"path":"scale"}},{"sampler":19,"target":{"node":67,"path":"scale"}},{"sampler":20,"target":{"node":72,"path":"scale"}},{"sampler":21,"target":{"node":77,"path":"translation"}},{"sampler":22,"target":{"node":77,"path":"rotation"}},{"sampler":23,"target":{"node":78,"path":"rotation"}}],"samplers":[{"input":0,"output":1},{"input":2,"output":3},{"input":4,"output":5},{"input":6,"output":7},{"input":8,"output":9},{"input":10,"output":11},{"input":12,"output":13},{"input":14,"output":15},{"input":16,"output":17},{"input":18,"output":19},{"input":20,"output":21},{"input":22,"output":23},{"input":24,"output":25},{"input":26,"output":27},{"input":28,"output":29},{"input":30,"output":31},{"input":32,"output":33},{"input":34,"output":35},{"input":36,"output":37},{"input":38,"output":39},{"input":40,"output":41},{"input":42,"output":43},{"input":44,"output":45},{"input":46,"output":47}],"name":"All Animations"}]}