<svg xmlns="http://www.w3.org/2000/svg" viewBox="0 0 346.57 179.98"><defs><style>.cls-1{fill:#7fd0dc;}</style></defs><g id="Layer_2" data-name="Layer 2"><g id="Layer_1-2" data-name="Layer 1"><path class="cls-1" d="M.29,62C-2.55,37.78,16.1,14,38.05,4.86s55.2-3.49,71.68,14.79c17.48,19.38,22,41.15,12.37,65.52a68.49,68.49,0,0,1-7.54,14c-3,4.34-7.12,6.44-13,4a197.91,197.91,0,0,0-20.8-6.77c-20-5.77-40.1-4.72-60.19-.62-9.93,2-11.16,1.68-15.65-7.3A48.62,48.62,0,0,1,.29,62Z"/><path class="cls-1" d="M322.66,82.62c-26.84-1.32-49.14,9.43-70.44,23-8.82,5.6-9,5.7-16.75-1.58-24.7-23.37-23.16-76.19,14.88-95.5C264,1.64,277.82-1.77,292.67.92c36.1,6.55,59.49,35.91,52.75,73.82-1.11,6.25-2.74,7.6-9.44,7.89C331.34,82.78,326.68,82.62,322.66,82.62Z"/><path class="cls-1" d="M197.77,142.85c-2.2,8.61-3.5,17.59-6.84,25.73-3.55,8.65-14.48,15.09-25.77,9-6.83-3.7-12.62-8.3-16.61-15.2-3.14-5.43-7.52-10.15-10.44-15.67-5-9.41-2-13.91,8.82-14.82,5.6-.47,11.27-.8,16.72-2a99.69,99.69,0,0,0,17.82-5.71c7.11-3.09,12.2-1.14,13.88,6.56a108.86,108.86,0,0,1,1.42,11.85Z"/></g></g></svg>