<svg xmlns="http://www.w3.org/2000/svg" viewBox="0 0 338.91 160.8"><defs><style>.cls-1{fill:#7fd0dc;}</style></defs><g id="Layer_2" data-name="Layer 2"><g id="Layer_1-2" data-name="Layer 1"><path class="cls-1" d="M65.82,0c28.91.35,58.23,20.38,65,51.72,6.09,28.25-7.88,56.88-35.41,70.34C63,137.89,25.67,125.22,9.62,99.69,6.14,94.16,2.93,87.92,1.7,81.6-4.7,48.54,6.64,18.69,40.8,5.8,48.73,2.8,57.45,1.88,65.82,0Z"/><path class="cls-1" d="M271.53,1.25C309.93.65,339.4,30,338.9,65.17c-.53,37-28.3,63.56-66.72,63.79a64.78,64.78,0,0,1-65.5-64,2.81,2.81,0,0,1,0-.29C206.53,29.45,238.24-.1,271.53,1.25Z"/><path class="cls-1" d="M174,160.8c-15.21.16-24.82-4.36-34.27-9.25-1.71-.89-3.64-2.26-4.39-3.91-1-2.14-2-5.76-1-7a9.78,9.78,0,0,1,7.49-2.85c2.74.3,5.34,2.48,7.87,4.06,13.14,8.23,26.23,8.23,39.38,0a47.36,47.36,0,0,1,7.9-4.18c3.14-1.2,6.43-.29,7.5,2.89.68,2-.16,5-1.16,7.11-.77,1.65-2.69,3-4.4,3.91C189.83,156.46,180.37,160.34,174,160.8Z"/></g></g></svg>